<?xml version="1.0" encoding="UTF-8"?>
<!DOCTYPE svg PUBLIC "-//W3C//DTD SVG 1.1//EN" "http://www.w3.org/Graphics/SVG/1.1/DTD/svg11.dtd">
<svg xmlns="http://www.w3.org/2000/svg" version="1.1" width="341px" height="160px" style="shape-rendering:geometricPrecision; text-rendering:geometricPrecision; image-rendering:optimizeQuality; fill-rule:evenodd; clip-rule:evenodd" xmlns:xlink="http://www.w3.org/1999/xlink">
<g><path style="opacity:0.075" fill="#baca20" d="M 106.5,-0.5 C 108.5,-0.5 110.5,-0.5 112.5,-0.5C 110.5,0.833333 108.5,0.833333 106.5,-0.5 Z"/></g>
<g><path style="opacity:0.09" fill="#b2b721" d="M 139.5,-0.5 C 141.167,-0.5 142.833,-0.5 144.5,-0.5C 142.833,0.833333 141.167,0.833333 139.5,-0.5 Z"/></g>
<g><path style="opacity:0.004" fill="#c6c616" d="M 146.5,-0.5 C 147.833,-0.5 149.167,-0.5 150.5,-0.5C 149.167,0.833333 147.833,0.833333 146.5,-0.5 Z"/></g>
<g><path style="opacity:0.106" fill="#afb81a" d="M 157.5,-0.5 C 159.833,-0.5 162.167,-0.5 164.5,-0.5C 162.167,0.833333 159.833,0.833333 157.5,-0.5 Z"/></g>
<g><path style="opacity:0.102" fill="#7d4480" d="M 174.5,-0.5 C 176.5,-0.5 178.5,-0.5 180.5,-0.5C 178.5,0.833333 176.5,0.833333 174.5,-0.5 Z"/></g>
<g><path style="opacity:0.004" fill="#000000" d="M 187.5,-0.5 C 188.833,-0.5 190.167,-0.5 191.5,-0.5C 190.167,0.833333 188.833,0.833333 187.5,-0.5 Z"/></g>
<g><path style="opacity:0.11" fill="#88428f" d="M 198.5,-0.5 C 200.833,-0.5 203.167,-0.5 205.5,-0.5C 203.167,0.833333 200.833,0.833333 198.5,-0.5 Z"/></g>
<g><path style="opacity:0.004" fill="#000000" d="M 212.5,-0.5 C 213.833,-0.5 215.167,-0.5 216.5,-0.5C 215.167,0.833333 213.833,0.833333 212.5,-0.5 Z"/></g>
<g><path style="opacity:0.096" fill="#834b88" d="M 218.5,-0.5 C 220.167,-0.5 221.833,-0.5 223.5,-0.5C 221.833,0.833333 220.167,0.833333 218.5,-0.5 Z"/></g>
<g><path style="opacity:0.879" fill="#884d95" d="M 228.5,-0.5 C 230.5,-0.5 232.5,-0.5 234.5,-0.5C 234.315,1.8896 232.982,2.8896 230.5,2.5C 227.761,2.45257 227.095,1.45257 228.5,-0.5 Z"/></g>
<g><path style="opacity:1" fill="#f6a022" d="M 180.5,20.5 C 181.048,22.3936 182.048,24.0603 183.5,25.5C 183.333,25.8333 183.167,26.1667 183,26.5C 182,25.5 181,24.5 180,23.5C 180.017,25.5676 181.017,27.2343 183,28.5C 183.281,30.9047 182.615,30.9047 181,28.5C 180.383,29.4491 180.549,30.2825 181.5,31C 179.913,31.8624 178.246,32.5291 176.5,33C 177.711,33.8928 177.711,34.7261 176.5,35.5C 174.42,32.3579 172.086,29.3579 169.5,26.5C 169.167,26.6667 168.833,26.8333 168.5,27C 171.268,29.8686 173.268,33.2019 174.5,37C 172.741,37.7975 171.074,37.6309 169.5,36.5C 170.167,36.1667 170.833,35.8333 171.5,35.5C 171,34.5 170.5,33.5 170,32.5C 168.179,35.1489 165.679,36.8156 162.5,37.5C 170.999,39.9788 179.666,40.8122 188.5,40C 188.286,37.4522 188.286,34.9522 188.5,32.5C 189.433,35.3702 191.1,37.7036 193.5,39.5C 194.429,40.6888 194.762,42.0222 194.5,43.5C 189.807,43.4599 185.141,43.1266 180.5,42.5C 176.102,42.7059 171.768,42.3726 167.5,41.5C 158.706,40.0659 149.706,39.2325 140.5,39C 140.167,38.6667 139.833,38.3333 139.5,38C 141.5,37.6667 143.5,37.3333 145.5,37C 140.25,36.8071 135.083,36.3071 130,35.5C 129.833,35.8333 129.667,36.1667 129.5,36.5C 132.447,37.3214 135.447,37.8214 138.5,38C 136.667,38.1667 134.833,38.3333 133,38.5C 130.698,38.3996 128.698,37.733 127,36.5C 126.296,38.727 125.129,39.0603 123.5,37.5C 119.904,36.8609 116.237,36.5276 112.5,36.5C 111.749,35.4265 110.749,35.2599 109.5,36C 108.915,37.3024 108.249,38.469 107.5,39.5C 105.549,39.7733 104.049,39.1066 103,37.5C 102.275,39.158 101.108,39.658 99.5,39C 100.451,38.2825 100.617,37.4491 100,36.5C 99.0853,37.3279 98.4186,38.3279 98,39.5C 97.6411,36.4557 96.9745,36.1224 96,38.5C 95.4054,37.1011 95.5721,35.7678 96.5,34.5C 95.8333,34.1667 95.1667,33.8333 94.5,33.5C 95.9632,31.2707 96.7965,28.9373 97,26.5C 94.8061,29.5544 93.1395,32.8878 92,36.5C 91.6924,35.6919 91.1924,35.0253 90.5,34.5C 89.1476,35.5175 88.1476,36.8508 87.5,38.5C 86.6043,37.4937 85.9377,37.4937 85.5,38.5C 86.376,39.2508 87.376,39.7508 88.5,40C 81.4763,40.8311 74.4763,40.6644 67.5,39.5C 70.9369,39.0417 74.6035,39.0417 78.5,39.5C 79.1924,38.9747 79.6924,38.3081 80,37.5C 80.8928,38.7112 81.7261,38.7112 82.5,37.5C 77.5178,36.4188 72.5178,35.4188 67.5,34.5C 68.989,34.4669 70.3224,33.9669 71.5,33C 70.6919,32.6924 70.0253,32.1924 69.5,31.5C 69.6938,29.7367 69.6938,27.9033 69.5,26C 70.5,25 71.5,24 72.5,23C 72.2716,22.6012 71.9382,22.4346 71.5,22.5C 75.1251,17.0614 80.1251,13.2281 86.5,11C 91.0598,8.88646 95.7265,7.05313 100.5,5.5C 102.453,6.15558 104.453,6.48891 106.5,6.5C 106.5,5.5 106.5,4.5 106.5,3.5C 133.315,0.111079 157.981,5.77775 180.5,20.5 Z"/></g>
<g><path style="opacity:0.684" fill="#52260e" d="M 122.5,-0.5 C 124.5,-0.5 126.5,-0.5 128.5,-0.5C 128.389,0.117425 128.056,0.617425 127.5,1C 148.605,1.92252 167.605,8.58919 184.5,21C 188.123,24.4495 191.123,28.2828 193.5,32.5C 193.328,33.4916 193.662,34.1583 194.5,34.5C 195.368,37.6727 195.368,40.6727 194.5,43.5C 194.762,42.0222 194.429,40.6888 193.5,39.5C 191.1,37.7036 189.433,35.3702 188.5,32.5C 188.196,31.8501 187.863,31.1835 187.5,30.5C 187.846,29.3044 188.346,29.3044 189,30.5C 187.901,25.8851 185.067,22.5518 180.5,20.5C 157.981,5.77775 133.315,0.111079 106.5,3.5C 106.5,4.5 106.5,5.5 106.5,6.5C 104.453,6.48891 102.453,6.15558 100.5,5.5C 95.7265,7.05313 91.0598,8.88646 86.5,11C 80.1251,13.2281 75.1251,17.0614 71.5,22.5C 65.7858,24.7213 61.6192,29.0546 59,35.5C 58.3603,37.265 58.5269,38.9317 59.5,40.5C 58.5,40.5 57.5,40.5 56.5,40.5C 56.588,35.9872 58.088,31.9872 61,28.5C 72.0377,15.5592 85.8711,7.05916 102.5,3C 109.363,2.15722 116.03,0.990552 122.5,-0.5 Z"/></g>
<g><path style="opacity:0.564" fill="#221a09" d="M 266.5,113.5 C 265.391,113.443 264.391,113.11 263.5,112.5C 266.212,108.722 267.879,104.388 268.5,99.5C 268.457,98.5836 268.124,97.9169 267.5,97.5C 268.66,96.735 269.66,95.735 270.5,94.5C 268.674,94.0798 266.674,94.0798 264.5,94.5C 266.539,93.4217 268.706,92.4217 271,91.5C 274.012,83.964 276.512,76.2974 278.5,68.5C 276.139,68.6741 273.806,69.0074 271.5,69.5C 271.5,69.1667 271.5,68.8333 271.5,68.5C 271.584,64.1629 272.584,60.1629 274.5,56.5C 273.662,60.4992 273.162,64.4992 273,68.5C 274.067,67.8095 275.234,67.3095 276.5,67C 281.677,59.146 287.677,51.9793 294.5,45.5C 292.812,44.4787 291.479,43.1454 290.5,41.5C 289.005,39.655 287.338,39.3217 285.5,40.5C 282.19,42.1464 279.523,44.4797 277.5,47.5C 277.5,46.8333 277.5,46.1667 277.5,45.5C 279.76,41.3126 281.76,36.9793 283.5,32.5C 282.675,31.6143 281.675,31.281 280.5,31.5C 279.737,35.1368 278.403,38.4701 276.5,41.5C 276.993,38.1879 277.993,35.0212 279.5,32C 277.984,30.073 275.984,28.9064 273.5,28.5C 271.607,29.9634 269.941,31.6301 268.5,33.5C 269.045,29.7428 271.045,27.0761 274.5,25.5C 275.305,23.0846 276.305,20.7513 277.5,18.5C 273.201,17.288 268.868,16.288 264.5,15.5C 263.321,22.5593 261.821,29.5593 260,36.5C 259.833,35.5 259.667,34.5 259.5,33.5C 260.761,24.8928 262.761,16.5594 265.5,8.5C 261.119,8.37176 256.785,8.70509 252.5,9.5C 252.5,14.1667 252.5,18.8333 252.5,23.5C 249.918,23.0254 247.918,23.6921 246.5,25.5C 245.999,27.246 245.332,28.246 244.5,28.5C 243.425,24.062 245.092,22.062 249.5,22.5C 249.822,20.2776 249.155,18.4443 247.5,17C 243.974,15.6632 240.308,15.1632 236.5,15.5C 235.338,20.1477 234.171,24.8143 233,29.5C 233.199,23.3611 234.365,17.3611 236.5,11.5C 236.291,10.914 235.957,10.414 235.5,10C 232.183,9.50166 228.85,9.33499 225.5,9.5C 224.999,14.1532 225.666,18.4865 227.5,22.5C 224.14,22.3841 220.807,22.0508 217.5,21.5C 215.342,33.773 213.509,46.1063 212,58.5C 210.755,64.7061 211.588,70.5395 214.5,76C 214.833,76.1667 215.167,76.3333 215.5,76.5C 218.222,64.4944 221.056,52.4944 224,40.5C 223.363,47.6946 222.197,54.8613 220.5,62C 221.125,63.8405 221.292,65.6739 221,67.5C 220.667,66.8333 220.333,66.1667 220,65.5C 218.545,70.0967 217.878,74.7634 218,79.5C 219.861,80.7636 221.861,81.7636 224,82.5C 227.325,82.3821 230.825,82.0487 234.5,81.5C 233.317,73.5728 231.651,65.7395 229.5,58C 229.667,57.1667 229.833,56.3333 230,55.5C 230.738,59.1098 231.905,62.4431 233.5,65.5C 233.908,70.5368 234.574,75.5368 235.5,80.5C 240.9,79.9329 243.734,76.9329 244,71.5C 244.333,72.5 244.667,73.5 245,74.5C 245.377,73.0577 246.21,72.0577 247.5,71.5C 246.523,74.9892 244.523,77.8225 241.5,80C 232.7,84.4656 224.033,84.4656 215.5,80C 213.121,76.7443 211.121,73.2443 209.5,69.5C 208.667,69.1667 207.833,68.8333 207,68.5C 203.849,69.0931 200.682,69.5931 197.5,70C 196.62,71.3561 196.286,72.8561 196.5,74.5C 196.672,75.4916 196.338,76.1583 195.5,76.5C 194.833,76.5 194.5,76.1667 194.5,75.5C 194.833,74.1667 195.167,72.8333 195.5,71.5C 195.5,69.8333 195.5,68.1667 195.5,66.5C 195.167,65.5 194.5,64.8333 193.5,64.5C 192.833,61.1667 192.167,57.8333 191.5,54.5C 192.778,54.7822 193.778,55.4489 194.5,56.5C 195.5,60.5007 196.5,64.5007 197.5,68.5C 199.467,68.7394 201.301,68.4061 203,67.5C 202.745,64.9184 202.578,62.2518 202.5,59.5C 202.5,58.8333 202.833,58.5 203.5,58.5C 203.548,61.3128 204.215,63.9795 205.5,66.5C 206.689,67.4287 208.022,67.762 209.5,67.5C 209.5,66.1667 209.5,64.8333 209.5,63.5C 209.833,62.1667 210.167,60.8333 210.5,59.5C 212.127,46.4429 214.127,33.4429 216.5,20.5C 217.5,20.5 218.5,20.5 219.5,20.5C 219.5,18.8333 219.5,17.1667 219.5,15.5C 218.566,14.4324 218.232,13.099 218.5,11.5C 215.751,11.2739 213.084,11.6072 210.5,12.5C 209.422,15.2078 207.422,16.7078 204.5,17C 203.748,17.6708 203.414,18.5041 203.5,19.5C 203.567,20.9587 203.234,22.2921 202.5,23.5C 198.51,22.8238 196.843,24.4905 197.5,28.5C 197.598,30.6193 198.431,32.286 200,33.5C 200.497,35.8098 200.663,38.1432 200.5,40.5C 200.167,40.5 199.833,40.5 199.5,40.5C 199.5,38.5 199.5,36.5 199.5,34.5C 197.833,34.5 196.167,34.5 194.5,34.5C 193.662,34.1583 193.328,33.4916 193.5,32.5C 194.748,31.6661 195.415,30.3328 195.5,28.5C 195.449,26.9002 195.116,25.4002 194.5,24C 197.167,23 199.833,22 202.5,21C 201.078,17.3624 202.411,15.1957 206.5,14.5C 207.167,13.5 207.833,12.5 208.5,11.5C 213.698,8.24225 218.698,8.24225 223.5,11.5C 224.386,10.675 224.719,9.67504 224.5,8.5C 229.167,8.5 233.833,8.5 238.5,8.5C 238.5,10.1667 238.5,11.8333 238.5,13.5C 242.516,13.2871 246.35,13.9538 250,15.5C 248.818,7.85717 251.984,4.85717 259.5,6.5C 263.045,6.31958 266.378,6.98624 269.5,8.5C 270.348,10.4086 270.682,12.4086 270.5,14.5C 273.994,14.6138 276.994,15.7804 279.5,18C 278.162,21.1326 277.329,24.2992 277,27.5C 280.272,28.4406 283.438,29.6073 286.5,31C 285.601,33.1917 284.601,35.3584 283.5,37.5C 285.766,38.3142 288.1,38.8142 290.5,39C 292.521,41.3367 294.521,43.6701 296.5,46C 290.804,52.029 285.471,58.3623 280.5,65C 281.167,65.3333 281.833,65.6667 282.5,66C 276.464,81.6076 271.131,97.4409 266.5,113.5 Z"/></g>
<g><path style="opacity:1" fill="#e2b628" d="M 219.5,15.5 C 219.354,13.0576 220.187,12.3909 222,13.5C 223.558,15.7689 223.724,18.1022 222.5,20.5C 221.065,19.0531 220.065,17.3864 219.5,15.5 Z"/></g>
<g><path style="opacity:1" fill="#e4b729" d="M 219.5,15.5 C 219.5,17.1667 219.5,18.8333 219.5,20.5C 218.5,20.5 217.5,20.5 216.5,20.5C 214.127,33.4429 212.127,46.4429 210.5,59.5C 208.619,48.2089 207.285,36.7089 206.5,25C 206.315,22.6241 205.315,20.7908 203.5,19.5C 203.414,18.5041 203.748,17.6708 204.5,17C 207.422,16.7078 209.422,15.2078 210.5,12.5C 213.084,11.6072 215.751,11.2739 218.5,11.5C 218.232,13.099 218.566,14.4324 219.5,15.5 Z"/></g>
<g><path style="opacity:1" fill="#eabc2a" d="M 200.5,40.5 C 200.663,38.1432 200.497,35.8098 200,33.5C 198.431,32.286 197.598,30.6193 197.5,28.5C 196.843,24.4905 198.51,22.8238 202.5,23.5C 203.496,23.5858 204.329,23.2524 205,22.5C 205.809,29.8603 206.642,37.1936 207.5,44.5C 205.78,44.7463 203.78,44.7463 201.5,44.5C 201.567,43.0413 201.234,41.7079 200.5,40.5 Z"/></g>
<g><path style="opacity:1" fill="#e0b428" d="M 268.5,33.5 C 263.142,42.8956 259.142,52.8956 256.5,63.5C 255.778,63.9175 255.278,64.5842 255,65.5C 254.833,64.5 254.667,63.5 254.5,62.5C 255.545,54.6992 257.211,47.0325 259.5,39.5C 259.333,38.8333 259.167,38.1667 259,37.5C 258.028,41.2325 257.528,40.8991 257.5,36.5C 258.369,32.1823 258.536,27.8489 258,23.5C 255.721,38.4541 253.721,53.4541 252,68.5C 249.974,68.9147 248.474,69.9147 247.5,71.5C 246.21,72.0577 245.377,73.0577 245,74.5C 244.667,73.5 244.333,72.5 244,71.5C 243.734,76.9329 240.9,79.9329 235.5,80.5C 234.574,75.5368 233.908,70.5368 233.5,65.5C 236.925,54.1247 239.591,42.4581 241.5,30.5C 244.833,30.5 248.167,30.5 251.5,30.5C 249.84,36.4817 248.174,42.4817 246.5,48.5C 246.667,49.1667 246.833,49.8333 247,50.5C 248.465,45.1057 250.131,39.7724 252,34.5C 251.318,41.2236 250.318,47.8903 249,54.5C 251.346,47.6287 253.18,40.6287 254.5,33.5C 254.471,31.9707 253.804,30.804 252.5,30C 250.527,29.5045 248.527,29.3379 246.5,29.5C 246.5,28.1667 246.5,26.8333 246.5,25.5C 247.918,23.6921 249.918,23.0254 252.5,23.5C 252.5,18.8333 252.5,14.1667 252.5,9.5C 256.785,8.70509 261.119,8.37176 265.5,8.5C 262.761,16.5594 260.761,24.8928 259.5,33.5C 259.667,34.5 259.833,35.5 260,36.5C 261.821,29.5593 263.321,22.5593 264.5,15.5C 268.868,16.288 273.201,17.288 277.5,18.5C 276.305,20.7513 275.305,23.0846 274.5,25.5C 271.045,27.0761 269.045,29.7428 268.5,33.5 Z"/></g>
<g><path style="opacity:1" fill="#e9bb29" d="M 276.5,41.5 C 275.262,43.2143 274.595,45.2143 274.5,47.5C 271.393,54.4923 269.059,61.8257 267.5,69.5C 263.5,69.5 259.5,69.5 255.5,69.5C 256.15,67.5648 256.483,65.5648 256.5,63.5C 260.692,53.5923 264.692,43.5923 268.5,33.5C 269.941,31.6301 271.607,29.9634 273.5,28.5C 275.984,28.9064 277.984,30.073 279.5,32C 277.993,35.0212 276.993,38.1879 276.5,41.5 Z"/></g>
<g><path style="opacity:1" fill="#b46f1b" d="M 180.5,20.5 C 185.067,22.5518 187.901,25.8851 189,30.5C 188.346,29.3044 187.846,29.3044 187.5,30.5C 187.863,31.1835 188.196,31.8501 188.5,32.5C 188.286,34.9522 188.286,37.4522 188.5,40C 179.666,40.8122 170.999,39.9788 162.5,37.5C 165.679,36.8156 168.179,35.1489 170,32.5C 170.5,33.5 171,34.5 171.5,35.5C 170.833,35.8333 170.167,36.1667 169.5,36.5C 171.074,37.6309 172.741,37.7975 174.5,37C 173.268,33.2019 171.268,29.8686 168.5,27C 168.833,26.8333 169.167,26.6667 169.5,26.5C 172.086,29.3579 174.42,32.3579 176.5,35.5C 177.711,34.7261 177.711,33.8928 176.5,33C 178.246,32.5291 179.913,31.8624 181.5,31C 180.549,30.2825 180.383,29.4491 181,28.5C 182.615,30.9047 183.281,30.9047 183,28.5C 181.017,27.2343 180.017,25.5676 180,23.5C 181,24.5 182,25.5 183,26.5C 183.167,26.1667 183.333,25.8333 183.5,25.5C 182.048,24.0603 181.048,22.3936 180.5,20.5 Z"/></g>
<g><path style="opacity:1" fill="#deb228" d="M 277.5,45.5 C 276.566,44.4324 276.232,43.099 276.5,41.5C 278.403,38.4701 279.737,35.1368 280.5,31.5C 281.675,31.281 282.675,31.6143 283.5,32.5C 281.76,36.9793 279.76,41.3126 277.5,45.5 Z"/></g>
<g><path style="opacity:0.999" fill="#e2b428" d="M 194.5,34.5 C 196.167,34.5 197.833,34.5 199.5,34.5C 199.5,36.5 199.5,38.5 199.5,40.5C 199.635,42.5542 198.968,44.2209 197.5,45.5C 196.127,45.6567 194.793,45.49 193.5,45C 194.056,44.6174 194.389,44.1174 194.5,43.5C 195.368,40.6727 195.368,37.6727 194.5,34.5 Z"/></g>
<g><path style="opacity:1" fill="#84b138" d="M 112.5,36.5 C 116.237,36.5276 119.904,36.8609 123.5,37.5C 123.5,38.5 123.5,39.5 123.5,40.5C 121.712,42.4227 119.712,43.0893 117.5,42.5C 118.5,44.8333 120.167,46.5 122.5,47.5C 120.108,50.3762 118.441,50.0429 117.5,46.5C 114.86,46.954 112.527,48.1207 110.5,50C 110.554,51.3509 110.054,52.5176 109,53.5C 105.338,51.9779 101.505,51.1445 97.5,51C 97.1667,50.6667 96.8333,50.3333 96.5,50C 97.8333,49.6667 99.1667,49.3333 100.5,49C 99.8971,46.9286 98.5638,45.7619 96.5,45.5C 97.9794,44.852 99.4794,44.5186 101,44.5C 101.333,46.1667 101.667,47.8333 102,49.5C 103.579,47.9588 105.413,46.7922 107.5,46C 106.833,45.6667 106.167,45.3333 105.5,45C 107.959,44.276 108.959,42.9427 108.5,41C 109.191,39.9326 109.691,38.7659 110,37.5C 110.671,36.7476 111.504,36.4142 112.5,36.5 Z"/></g>
<g><path style="opacity:1" fill="#965814" d="M 71.5,22.5 C 71.9382,22.4346 72.2716,22.6012 72.5,23C 71.5,24 70.5,25 69.5,26C 69.6938,27.9033 69.6938,29.7367 69.5,31.5C 70.0253,32.1924 70.6919,32.6924 71.5,33C 70.3224,33.9669 68.989,34.4669 67.5,34.5C 72.5178,35.4188 77.5178,36.4188 82.5,37.5C 81.7261,38.7112 80.8928,38.7112 80,37.5C 79.6924,38.3081 79.1924,38.9747 78.5,39.5C 74.6035,39.0417 70.9369,39.0417 67.5,39.5C 74.4763,40.6644 81.4763,40.8311 88.5,40C 87.376,39.7508 86.376,39.2508 85.5,38.5C 85.9377,37.4937 86.6043,37.4937 87.5,38.5C 88.1476,36.8508 89.1476,35.5175 90.5,34.5C 91.1924,35.0253 91.6924,35.6919 92,36.5C 93.1395,32.8878 94.8061,29.5544 97,26.5C 96.7965,28.9373 95.9632,31.2707 94.5,33.5C 95.1667,33.8333 95.8333,34.1667 96.5,34.5C 95.5721,35.7678 95.4054,37.1011 96,38.5C 96.9745,36.1224 97.6411,36.4557 98,39.5C 98.4186,38.3279 99.0853,37.3279 100,36.5C 100.617,37.4491 100.451,38.2825 99.5,39C 101.108,39.658 102.275,39.158 103,37.5C 104.049,39.1066 105.549,39.7733 107.5,39.5C 95.3749,41.1739 83.0416,41.8405 70.5,41.5C 66.7307,41.756 63.0641,41.4227 59.5,40.5C 58.5269,38.9317 58.3603,37.265 59,35.5C 61.6192,29.0546 65.7858,24.7213 71.5,22.5 Z"/></g>
<g><path style="opacity:1" fill="#87bc3c" d="M 123.5,40.5 C 128.214,40.1734 132.88,40.5067 137.5,41.5C 134.997,42.9643 132.33,44.131 129.5,45C 130.167,45.1667 130.833,45.3333 131.5,45.5C 133.105,44.5697 134.605,44.5697 136,45.5C 137.51,43.7923 139.01,42.1256 140.5,40.5C 141.298,40.9569 141.631,41.6236 141.5,42.5C 140.549,43.9187 140.216,45.5853 140.5,47.5C 141.552,47.3505 142.552,47.5172 143.5,48C 142.5,49 141.5,50 140.5,51C 140.762,52.9778 141.428,55.1444 142.5,57.5C 140.833,57.5 139.167,57.5 137.5,57.5C 137.806,54.6146 137.473,51.9479 136.5,49.5C 135.791,48.596 134.791,48.2627 133.5,48.5C 131.318,45.9571 129.152,45.9571 127,48.5C 124.575,47.3834 122.409,45.8834 120.5,44C 121.448,43.5172 122.448,43.3505 123.5,43.5C 123.5,42.5 123.5,41.5 123.5,40.5 Z"/></g>
<g><path style="opacity:0.997" fill="#29200c" d="M 256.5,63.5 C 256.483,65.5648 256.15,67.5648 255.5,69.5C 259.634,70.4849 263.968,70.8182 268.5,70.5C 268.5,71.1667 268.167,71.5 267.5,71.5C 266.209,71.2627 265.209,71.596 264.5,72.5C 258.797,72.6252 253.13,72.2919 247.5,71.5C 248.474,69.9147 249.974,68.9147 252,68.5C 253.721,53.4541 255.721,38.4541 258,23.5C 258.536,27.8489 258.369,32.1823 257.5,36.5C 257.528,40.8991 258.028,41.2325 259,37.5C 259.167,38.1667 259.333,38.8333 259.5,39.5C 257.211,47.0325 255.545,54.6992 254.5,62.5C 254.667,63.5 254.833,64.5 255,65.5C 255.278,64.5842 255.778,63.9175 256.5,63.5 Z"/></g>
<g><path style="opacity:1" fill="#dfb328" d="M 285.5,40.5 C 286.239,40.369 286.906,40.5357 287.5,41C 284.333,44.1667 281.167,47.3333 278,50.5C 277.517,49.552 277.351,48.552 277.5,47.5C 279.523,44.4797 282.19,42.1464 285.5,40.5 Z"/></g>
<g><path style="opacity:1" fill="#e7b929" d="M 290.5,41.5 C 291.479,43.1454 292.812,44.4787 294.5,45.5C 287.677,51.9793 281.677,59.146 276.5,67C 275.234,67.3095 274.067,67.8095 273,68.5C 273.162,64.4992 273.662,60.4992 274.5,56.5C 279.172,50.8293 284.505,45.8293 290.5,41.5 Z"/></g>
<g><path style="opacity:1" fill="#82ac37" d="M 56.5,40.5 C 57.5,40.5 58.5,40.5 59.5,40.5C 63.0641,41.4227 66.7307,41.756 70.5,41.5C 71.9516,42.3019 73.6183,42.8019 75.5,43C 73.7444,43.2022 72.0777,43.7022 70.5,44.5C 70.6667,44.8333 70.8333,45.1667 71,45.5C 80.9831,42.648 91.1498,41.648 101.5,42.5C 98.1667,43.1667 94.8333,43.8333 91.5,44.5C 93.0453,45.4519 94.712,45.7852 96.5,45.5C 96.9528,46.4584 97.6195,47.2917 98.5,48C 94.6475,48.4466 91.3141,49.9466 88.5,52.5C 86.7859,51.3915 86.1192,52.0582 86.5,54.5C 84.1432,54.6633 81.8098,54.4966 79.5,54C 77.4259,49.5307 74.0925,48.1973 69.5,50C 68.8903,48.0528 68.0569,46.2194 67,44.5C 66.5,45 66,45.5 65.5,46C 67.9972,48.2597 67.3305,49.593 63.5,50C 64.1667,50.3333 64.8333,50.6667 65.5,51C 64.062,51.2189 62.7287,51.7189 61.5,52.5C 64.1667,52.5 66.8333,52.5 69.5,52.5C 67.3435,53.7904 65.0101,54.6237 62.5,55C 61.3101,58.5085 59.3101,59.1752 56.5,57C 57.5,56 58.5,55 59.5,54C 57.3348,52.4364 55.6681,52.6031 54.5,54.5C 53.1688,51.9509 54.0021,50.2842 57,49.5C 57.4828,48.552 57.6495,47.552 57.5,46.5C 55.7376,46.6427 54.0709,46.3094 52.5,45.5C 51.707,46.3554 52.0403,47.1887 53.5,48C 50.0715,50.016 46.7382,49.8494 43.5,47.5C 43.8333,46.8333 44.1667,46.1667 44.5,45.5C 47.4465,44.6786 50.4465,44.1786 53.5,44C 54.3805,43.2917 55.0472,42.4584 55.5,41.5C 55.5,40.8333 55.8333,40.5 56.5,40.5 Z"/></g>
<g><path style="opacity:1" fill="#574818" d="M 112.5,36.5 C 111.504,36.4142 110.671,36.7476 110,37.5C 109.691,38.7659 109.191,39.9326 108.5,41C 108.959,42.9427 107.959,44.276 105.5,45C 106.167,45.3333 106.833,45.6667 107.5,46C 105.413,46.7922 103.579,47.9588 102,49.5C 101.667,47.8333 101.333,46.1667 101,44.5C 99.4794,44.5186 97.9794,44.852 96.5,45.5C 94.712,45.7852 93.0453,45.4519 91.5,44.5C 94.8333,43.8333 98.1667,43.1667 101.5,42.5C 91.1498,41.648 80.9831,42.648 71,45.5C 70.8333,45.1667 70.6667,44.8333 70.5,44.5C 72.0777,43.7022 73.7444,43.2022 75.5,43C 73.6183,42.8019 71.9516,42.3019 70.5,41.5C 83.0416,41.8405 95.3749,41.1739 107.5,39.5C 108.249,38.469 108.915,37.3024 109.5,36C 110.749,35.2599 111.749,35.4265 112.5,36.5 Z"/></g>
<g><path style="opacity:1" fill="#6a4d17" d="M 167.5,41.5 C 165.135,42.0084 162.801,42.6751 160.5,43.5C 159.304,43.1543 159.304,42.6543 160.5,42C 159.056,41.2195 157.723,41.3861 156.5,42.5C 157.025,46.1436 156.358,45.8103 154.5,41.5C 153.311,40.5713 151.978,40.238 150.5,40.5C 150.629,42.2161 150.962,43.8828 151.5,45.5C 150.448,45.6495 149.448,45.4828 148.5,45C 149.38,43.6439 149.714,42.1439 149.5,40.5C 147.167,40.5 144.833,40.5 142.5,40.5C 142.754,42.4008 142.42,43.0674 141.5,42.5C 141.631,41.6236 141.298,40.9569 140.5,40.5C 139.01,42.1256 137.51,43.7923 136,45.5C 134.605,44.5697 133.105,44.5697 131.5,45.5C 130.833,45.3333 130.167,45.1667 129.5,45C 132.33,44.131 134.997,42.9643 137.5,41.5C 132.88,40.5067 128.214,40.1734 123.5,40.5C 123.5,39.5 123.5,38.5 123.5,37.5C 125.129,39.0603 126.296,38.727 127,36.5C 128.698,37.733 130.698,38.3996 133,38.5C 134.833,38.3333 136.667,38.1667 138.5,38C 135.447,37.8214 132.447,37.3214 129.5,36.5C 129.667,36.1667 129.833,35.8333 130,35.5C 135.083,36.3071 140.25,36.8071 145.5,37C 143.5,37.3333 141.5,37.6667 139.5,38C 139.833,38.3333 140.167,38.6667 140.5,39C 149.706,39.2325 158.706,40.0659 167.5,41.5 Z"/></g>
<g><path style="opacity:1" fill="#553011" d="M 180.5,42.5 C 185.141,43.1266 189.807,43.4599 194.5,43.5C 194.389,44.1174 194.056,44.6174 193.5,45C 194.793,45.49 196.127,45.6567 197.5,45.5C 194.68,48.1567 192.013,47.99 189.5,45C 186.258,44.5939 183.258,43.7605 180.5,42.5 Z"/></g>
<g><path style="opacity:1" fill="#e6b929" d="M 244.5,28.5 C 241.612,28.2196 240.112,29.5529 240,32.5C 237.351,43.4243 235.185,54.4243 233.5,65.5C 231.905,62.4431 230.738,59.1098 230,55.5C 229.833,56.3333 229.667,57.1667 229.5,58C 231.651,65.7395 233.317,73.5728 234.5,81.5C 230.825,82.0487 227.325,82.3821 224,82.5C 221.861,81.7636 219.861,80.7636 218,79.5C 217.878,74.7634 218.545,70.0967 220,65.5C 220.333,66.1667 220.667,66.8333 221,67.5C 221.292,65.6739 221.125,63.8405 220.5,62C 222.197,54.8613 223.363,47.6946 224,40.5C 221.056,52.4944 218.222,64.4944 215.5,76.5C 215.167,76.3333 214.833,76.1667 214.5,76C 211.588,70.5395 210.755,64.7061 212,58.5C 213.509,46.1063 215.342,33.773 217.5,21.5C 220.807,22.0508 224.14,22.3841 227.5,22.5C 225.666,18.4865 224.999,14.1532 225.5,9.5C 228.85,9.33499 232.183,9.50166 235.5,10C 235.957,10.414 236.291,10.914 236.5,11.5C 234.365,17.3611 233.199,23.3611 233,29.5C 234.171,24.8143 235.338,20.1477 236.5,15.5C 240.308,15.1632 243.974,15.6632 247.5,17C 249.155,18.4443 249.822,20.2776 249.5,22.5C 245.092,22.062 243.425,24.062 244.5,28.5 Z"/></g>
<g><path style="opacity:0.941" fill="#4c3d12" d="M 227.5,22.5 C 228.124,22.9169 228.457,23.5836 228.5,24.5C 227.266,30.1057 226.433,35.7723 226,41.5C 225.077,39.9656 224.577,38.299 224.5,36.5C 225.504,31.8206 226.504,27.1539 227.5,22.5 Z"/></g>
<g><path style="opacity:1" fill="#72872c" d="M 151.5,45.5 C 150.39,50.444 147.39,53.6106 142.5,55C 143.252,55.6708 143.586,56.5041 143.5,57.5C 143.167,57.5 142.833,57.5 142.5,57.5C 141.428,55.1444 140.762,52.9778 140.5,51C 141.5,50 142.5,49 143.5,48C 142.552,47.5172 141.552,47.3505 140.5,47.5C 140.216,45.5853 140.549,43.9187 141.5,42.5C 142.42,43.0674 142.754,42.4008 142.5,40.5C 144.833,40.5 147.167,40.5 149.5,40.5C 149.714,42.1439 149.38,43.6439 148.5,45C 149.448,45.4828 150.448,45.6495 151.5,45.5 Z"/></g>
<g><path style="opacity:0.961" fill="#705615" d="M 203.5,19.5 C 205.315,20.7908 206.315,22.6241 206.5,25C 207.285,36.7089 208.619,48.2089 210.5,59.5C 210.167,60.8333 209.833,62.1667 209.5,63.5C 208.672,58.6428 207.838,53.6428 207,48.5C 205.644,49.3802 204.144,49.7135 202.5,49.5C 202.508,52.5448 202.841,55.5448 203.5,58.5C 202.833,58.5 202.5,58.8333 202.5,59.5C 201.717,56.2239 200.717,52.8906 199.5,49.5C 198.702,49.9569 198.369,50.6236 198.5,51.5C 197.596,50.791 197.263,49.791 197.5,48.5C 209.5,47.5 209.5,46.5 197.5,45.5C 198.968,44.2209 199.635,42.5542 199.5,40.5C 199.833,40.5 200.167,40.5 200.5,40.5C 201.234,41.7079 201.567,43.0413 201.5,44.5C 203.78,44.7463 205.78,44.7463 207.5,44.5C 206.642,37.1936 205.809,29.8603 205,22.5C 204.329,23.2524 203.496,23.5858 202.5,23.5C 203.234,22.2921 203.567,20.9587 203.5,19.5 Z"/></g>
<g><path style="opacity:1" fill="#483114" d="M 151.5,45.5 C 153.352,46.0889 155.185,46.7556 157,47.5C 157.148,49.9054 156.648,52.2387 155.5,54.5C 155.787,56.4433 156.787,57.7767 158.5,58.5C 157.5,58.5 156.5,58.5 155.5,58.5C 153.698,57.5418 151.698,56.8751 149.5,56.5C 147.379,56.3253 145.379,56.6586 143.5,57.5C 143.586,56.5041 143.252,55.6708 142.5,55C 147.39,53.6106 150.39,50.444 151.5,45.5 Z"/></g>
<g><path style="opacity:1" fill="#84b239" d="M 167.5,41.5 C 171.768,42.3726 176.102,42.7059 180.5,42.5C 183.258,43.7605 186.258,44.5939 189.5,45C 192.013,47.99 194.68,48.1567 197.5,45.5C 209.5,46.5 209.5,47.5 197.5,48.5C 197.263,49.791 197.596,50.791 198.5,51.5C 199.043,51.56 199.376,51.8933 199.5,52.5C 198.675,53.3857 197.675,53.719 196.5,53.5C 193.927,53.8515 191.594,53.3515 189.5,52C 190.328,51.0853 191.328,50.4186 192.5,50C 190.633,49.2888 189.133,49.7888 188,51.5C 184.49,48.4144 182.323,49.081 181.5,53.5C 178.988,54.9279 176.322,55.4279 173.5,55C 175.623,54.1853 177.623,53.1853 179.5,52C 176.903,49.9665 174.737,50.4665 173,53.5C 168.548,51.9274 163.714,51.4274 158.5,52C 157.549,52.7175 157.383,53.5509 158,54.5C 159.399,55.2266 160.899,55.7266 162.5,56C 161.619,56.7083 160.953,57.5416 160.5,58.5C 159.833,58.5 159.167,58.5 158.5,58.5C 156.787,57.7767 155.787,56.4433 155.5,54.5C 156.648,52.2387 157.148,49.9054 157,47.5C 155.185,46.7556 153.352,46.0889 151.5,45.5C 150.962,43.8828 150.629,42.2161 150.5,40.5C 151.978,40.238 153.311,40.5713 154.5,41.5C 156.358,45.8103 157.025,46.1436 156.5,42.5C 157.723,41.3861 159.056,41.2195 160.5,42C 159.304,42.6543 159.304,43.1543 160.5,43.5C 162.801,42.6751 165.135,42.0084 167.5,41.5 Z"/></g>
<g><path style="opacity:0.933" fill="#574612" d="M 246.5,25.5 C 246.5,26.8333 246.5,28.1667 246.5,29.5C 248.527,29.3379 250.527,29.5045 252.5,30C 253.804,30.804 254.471,31.9707 254.5,33.5C 253.18,40.6287 251.346,47.6287 249,54.5C 250.318,47.8903 251.318,41.2236 252,34.5C 250.131,39.7724 248.465,45.1057 247,50.5C 246.833,49.8333 246.667,49.1667 246.5,48.5C 248.174,42.4817 249.84,36.4817 251.5,30.5C 248.167,30.5 244.833,30.5 241.5,30.5C 239.591,42.4581 236.925,54.1247 233.5,65.5C 235.185,54.4243 237.351,43.4243 240,32.5C 240.112,29.5529 241.612,28.2196 244.5,28.5C 245.332,28.246 245.999,27.246 246.5,25.5 Z"/></g>
<g><path style="opacity:1" fill="#6a7426" d="M 173.5,43.5 C 175.735,44.2481 175.402,45.0814 172.5,46C 174.749,46.8632 176.582,46.3632 178,44.5C 180.351,45.7143 182.851,46.5477 185.5,47C 181.155,45.3524 177.488,46.3524 174.5,50C 171.013,50.7573 168.346,49.5906 166.5,46.5C 169,45.6411 171.333,44.6411 173.5,43.5 Z"/></g>
<g><path style="opacity:0.949" fill="#554411" d="M 231.5,31.5 C 232.147,32.2739 232.48,33.2739 232.5,34.5C 231.441,41.186 230.275,47.8527 229,54.5C 227.883,50.5118 227.216,46.5118 227,42.5C 227.471,44.2464 228.138,45.913 229,47.5C 229.943,42.173 230.777,36.8397 231.5,31.5 Z"/></g>
<g><path style="opacity:0.941" fill="#6d5715" d="M 285.5,40.5 C 287.338,39.3217 289.005,39.655 290.5,41.5C 284.505,45.8293 279.172,50.8293 274.5,56.5C 274.955,53.7965 275.622,51.1298 276.5,48.5C 276.561,46.279 275.895,45.9456 274.5,47.5C 274.595,45.2143 275.262,43.2143 276.5,41.5C 276.232,43.099 276.566,44.4324 277.5,45.5C 277.5,46.1667 277.5,46.8333 277.5,47.5C 277.351,48.552 277.517,49.552 278,50.5C 281.167,47.3333 284.333,44.1667 287.5,41C 286.906,40.5357 286.239,40.369 285.5,40.5 Z"/></g>
<g><path style="opacity:1" fill="#e4b729" d="M 202.5,59.5 C 202.578,62.2518 202.745,64.9184 203,67.5C 201.301,68.4061 199.467,68.7394 197.5,68.5C 196.5,64.5007 195.5,60.5007 194.5,56.5C 194.782,55.2223 195.449,54.2223 196.5,53.5C 197.675,53.719 198.675,53.3857 199.5,52.5C 199.376,51.8933 199.043,51.56 198.5,51.5C 198.369,50.6236 198.702,49.9569 199.5,49.5C 200.717,52.8906 201.717,56.2239 202.5,59.5 Z"/></g>
<g><path style="opacity:0.999" fill="#e4b729" d="M 209.5,63.5 C 209.5,64.8333 209.5,66.1667 209.5,67.5C 208.022,67.762 206.689,67.4287 205.5,66.5C 204.215,63.9795 203.548,61.3128 203.5,58.5C 202.841,55.5448 202.508,52.5448 202.5,49.5C 204.144,49.7135 205.644,49.3802 207,48.5C 207.838,53.6428 208.672,58.6428 209.5,63.5 Z"/></g>
<g><path style="opacity:1" fill="#6c7827" d="M 123.5,40.5 C 123.5,41.5 123.5,42.5 123.5,43.5C 122.448,43.3505 121.448,43.5172 120.5,44C 122.409,45.8834 124.575,47.3834 127,48.5C 129.152,45.9571 131.318,45.9571 133.5,48.5C 133.182,50.8184 131.848,52.1517 129.5,52.5C 127.675,51.3489 125.675,50.6822 123.5,50.5C 123.5,51.8333 123.5,53.1667 123.5,54.5C 121.833,54.5 120.167,54.5 118.5,54.5C 117.571,53.6851 116.571,52.8518 115.5,52C 117.155,50.5557 117.822,48.7224 117.5,46.5C 118.441,50.0429 120.108,50.3762 122.5,47.5C 120.167,46.5 118.5,44.8333 117.5,42.5C 119.712,43.0893 121.712,42.4227 123.5,40.5 Z"/></g>
<g><path style="opacity:0.953" fill="#332a0d" d="M 268.5,33.5 C 264.692,43.5923 260.692,53.5923 256.5,63.5C 259.142,52.8956 263.142,42.8956 268.5,33.5 Z"/></g>
<g><path style="opacity:0.769" fill="#4e2610" d="M 55.5,41.5 C 55.0472,42.4584 54.3805,43.2917 53.5,44C 50.4465,44.1786 47.4465,44.6786 44.5,45.5C 44.1667,46.1667 43.8333,46.8333 43.5,47.5C 46.7382,49.8494 50.0715,50.016 53.5,48C 52.0403,47.1887 51.707,46.3554 52.5,45.5C 54.0709,46.3094 55.7376,46.6427 57.5,46.5C 57.6495,47.552 57.4828,48.552 57,49.5C 54.0021,50.2842 53.1688,51.9509 54.5,54.5C 55.6681,52.6031 57.3348,52.4364 59.5,54C 58.5,55 57.5,56 56.5,57C 59.3101,59.1752 61.3101,58.5085 62.5,55C 65.0101,54.6237 67.3435,53.7904 69.5,52.5C 66.8333,52.5 64.1667,52.5 61.5,52.5C 62.7287,51.7189 64.062,51.2189 65.5,51C 64.8333,50.6667 64.1667,50.3333 63.5,50C 67.3305,49.593 67.9972,48.2597 65.5,46C 66,45.5 66.5,45 67,44.5C 68.0569,46.2194 68.8903,48.0528 69.5,50C 74.0925,48.1973 77.4259,49.5307 79.5,54C 81.8098,54.4966 84.1432,54.6633 86.5,54.5C 86.1192,52.0582 86.7859,51.3915 88.5,52.5C 91.3141,49.9466 94.6475,48.4466 98.5,48C 97.6195,47.2917 96.9528,46.4584 96.5,45.5C 98.5638,45.7619 99.8971,46.9286 100.5,49C 99.1667,49.3333 97.8333,49.6667 96.5,50C 96.8333,50.3333 97.1667,50.6667 97.5,51C 101.505,51.1445 105.338,51.9779 109,53.5C 110.054,52.5176 110.554,51.3509 110.5,50C 112.527,48.1207 114.86,46.954 117.5,46.5C 117.822,48.7224 117.155,50.5557 115.5,52C 116.571,52.8518 117.571,53.6851 118.5,54.5C 117.167,54.5 115.833,54.5 114.5,54.5C 114.343,55.8734 114.51,57.2068 115,58.5C 115.556,56.4049 116.056,56.2382 116.5,58C 115.746,61.0878 114.58,61.2545 113,58.5C 112.51,57.2068 112.343,55.8734 112.5,54.5C 104.616,54.1302 97.9491,53.4636 92.5,52.5C 90.9984,53.0831 89.6651,53.9164 88.5,55C 82.8431,55.4994 77.1764,55.6661 71.5,55.5C 71.3068,59.449 70.8068,59.449 70,55.5C 69.1923,57.5787 69.359,59.5787 70.5,61.5C 72.0691,60.286 72.9024,58.6193 73,56.5C 74.1853,58.3772 75.1853,60.3772 76,62.5C 77.3024,63.0848 78.469,63.7515 79.5,64.5C 76.5176,64.0371 73.5176,63.7038 70.5,63.5C 70.5,64.8333 70.5,66.1667 70.5,67.5C 73.0177,68.2638 75.351,69.2638 77.5,70.5C 75.0065,70.1307 74.3398,70.7973 75.5,72.5C 73.3875,73.4396 71.3875,74.6063 69.5,76C 71.5,76.3333 73.5,76.6667 75.5,77C 73.2318,79.032 73.8985,80.3654 77.5,81C 75.6508,82.093 73.9842,83.4263 72.5,85C 73.549,85.4922 74.549,85.3256 75.5,84.5C 76.9132,90.3785 79.5799,91.3785 83.5,87.5C 83.5,88.5 83.5,89.5 83.5,90.5C 89.5153,87.8359 89.8487,88.3359 84.5,92C 86.1341,92.4935 87.8008,92.6602 89.5,92.5C 83.5902,94.6498 77.4235,95.9832 71,96.5C 70.2904,95.0267 69.1238,94.3601 67.5,94.5C 67.6882,96.1033 67.1882,97.4366 66,98.5C 64.5064,97.2528 63.0064,97.2528 61.5,98.5C 60.8283,100.53 60.1616,102.53 59.5,104.5C 58.596,105.209 58.2627,106.209 58.5,107.5C 61.3126,107.23 63.9792,106.73 66.5,106C 65.5141,110.578 67.1808,114.078 71.5,116.5C 71.1667,117.167 70.8333,117.833 70.5,118.5C 66.8439,116.339 64.5106,113.172 63.5,109C 61.4731,109.498 59.4731,109.331 57.5,108.5C 57.2907,107.914 56.9574,107.414 56.5,107C 57.4951,104.029 58.4951,101.029 59.5,98C 58.0761,95.3415 56.0761,94.5081 53.5,95.5C 49.9682,94.8417 48.9682,93.0083 50.5,90C 49.2341,89.6905 48.0674,89.1905 47,88.5C 42.862,82.1067 44.6953,78.7734 52.5,78.5C 53.8155,75.6673 55.8155,74.834 58.5,76C 60.0897,72.7692 59.4231,70.1026 56.5,68C 58.9235,63.7863 62.5901,61.6196 67.5,61.5C 67.6621,59.4727 67.4955,57.4727 67,55.5C 64.103,56.7126 61.603,58.3793 59.5,60.5C 58.4461,60.3201 57.4461,59.9867 56.5,59.5C 55.4586,57.4148 53.9586,55.7481 52,54.5C 51.3162,53.2161 51.4829,52.0495 52.5,51C 49.1832,50.5017 45.8499,50.335 42.5,50.5C 42.22,47.7276 42.8866,45.2276 44.5,43C 48.2142,42.6805 51.8809,42.1805 55.5,41.5 Z"/></g>
<g><path style="opacity:0.949" fill="#6a5314" d="M 274.5,47.5 C 272.92,54.5786 270.92,61.5786 268.5,68.5C 269.425,69.5624 270.425,69.5624 271.5,68.5C 271.5,68.8333 271.5,69.1667 271.5,69.5C 270.791,70.404 269.791,70.7373 268.5,70.5C 263.968,70.8182 259.634,70.4849 255.5,69.5C 259.5,69.5 263.5,69.5 267.5,69.5C 269.059,61.8257 271.393,54.4923 274.5,47.5 Z"/></g>
<g><path style="opacity:1" fill="#d91b1d" d="M 133.5,48.5 C 134.791,48.2627 135.791,48.596 136.5,49.5C 136.768,52.1194 136.435,54.6194 135.5,57C 129.15,58.9392 122.817,60.4392 116.5,61.5C 114.265,61.2053 112.265,61.5386 110.5,62.5C 100.833,63.1667 91.1667,63.8333 81.5,64.5C 80.8333,64.5 80.1667,64.5 79.5,64.5C 78.469,63.7515 77.3024,63.0848 76,62.5C 75.1853,60.3772 74.1853,58.3772 73,56.5C 72.9024,58.6193 72.0691,60.286 70.5,61.5C 69.359,59.5787 69.1923,57.5787 70,55.5C 70.8068,59.449 71.3068,59.449 71.5,55.5C 77.1764,55.6661 82.8431,55.4994 88.5,55C 89.6651,53.9164 90.9984,53.0831 92.5,52.5C 97.9491,53.4636 104.616,54.1302 112.5,54.5C 112.343,55.8734 112.51,57.2068 113,58.5C 114.58,61.2545 115.746,61.0878 116.5,58C 116.056,56.2382 115.556,56.4049 115,58.5C 114.51,57.2068 114.343,55.8734 114.5,54.5C 115.833,54.5 117.167,54.5 118.5,54.5C 120.167,54.5 121.833,54.5 123.5,54.5C 123.5,53.1667 123.5,51.8333 123.5,50.5C 125.675,50.6822 127.675,51.3489 129.5,52.5C 131.848,52.1517 133.182,50.8184 133.5,48.5 Z"/></g>
<g><path style="opacity:0.992" fill="#5b2f17" d="M 136.5,49.5 C 137.473,51.9479 137.806,54.6146 137.5,57.5C 139.167,57.5 140.833,57.5 142.5,57.5C 142.833,57.5 143.167,57.5 143.5,57.5C 138.476,58.8879 133.476,60.0546 128.5,61C 129.253,62.487 130.086,62.6537 131,61.5C 136.227,63.6497 141.561,64.3164 147,63.5C 148.411,61.3496 149.245,59.0163 149.5,56.5C 151.698,56.8751 153.698,57.5418 155.5,58.5C 153.553,60.2162 152.219,62.3829 151.5,65C 158.791,66.6826 166.124,66.8492 173.5,65.5C 176.346,60.1675 177.013,60.5009 175.5,66.5C 177.857,66.6633 180.19,66.4966 182.5,66C 183.26,64.5589 183.926,63.0589 184.5,61.5C 182.234,60.6858 179.9,60.1858 177.5,60C 179.935,58.9966 179.602,58.4966 176.5,58.5C 173.518,59.3323 170.518,59.499 167.5,59C 172.432,59.4244 173.432,57.9244 170.5,54.5C 169.186,55.3128 168.019,56.3128 167,57.5C 166.396,55.3143 165.23,55.1476 163.5,57C 163.833,57.3333 164.167,57.6667 164.5,58C 163.207,58.49 161.873,58.6567 160.5,58.5C 160.953,57.5416 161.619,56.7083 162.5,56C 160.899,55.7266 159.399,55.2266 158,54.5C 157.383,53.5509 157.549,52.7175 158.5,52C 163.714,51.4274 168.548,51.9274 173,53.5C 174.737,50.4665 176.903,49.9665 179.5,52C 177.623,53.1853 175.623,54.1853 173.5,55C 176.322,55.4279 178.988,54.9279 181.5,53.5C 182.323,49.081 184.49,48.4144 188,51.5C 189.133,49.7888 190.633,49.2888 192.5,50C 191.328,50.4186 190.328,51.0853 189.5,52C 191.594,53.3515 193.927,53.8515 196.5,53.5C 195.449,54.2223 194.782,55.2223 194.5,56.5C 193.778,55.4489 192.778,54.7822 191.5,54.5C 189.072,53.7878 186.739,52.7878 184.5,51.5C 184.167,51.8333 183.833,52.1667 183.5,52.5C 185.025,55.2781 186.025,58.2781 186.5,61.5C 188.641,62.9518 190.975,63.9518 193.5,64.5C 194.5,64.8333 195.167,65.5 195.5,66.5C 193.044,65.7379 190.544,65.0712 188,64.5C 185.232,65.5999 183.065,67.4333 181.5,70C 181.833,70.3333 182.167,70.6667 182.5,71C 180.19,71.4966 177.857,71.6633 175.5,71.5C 177.158,70.8186 178.825,69.9853 180.5,69C 164.793,68.8511 149.293,67.0178 134,63.5C 132.174,64.0104 132.007,64.8438 133.5,66C 136.004,66.6976 138.337,67.5309 140.5,68.5C 131.757,68.8454 123.09,70.1788 114.5,72.5C 111.167,72.1667 107.833,71.8333 104.5,71.5C 113.178,70.4168 121.845,68.7501 130.5,66.5C 130.5,65.5 130.5,64.5 130.5,63.5C 127.507,64.1346 124.507,64.3013 121.5,64C 122.833,63.6667 124.167,63.3333 125.5,63C 122.722,61.6081 119.722,61.1081 116.5,61.5C 122.817,60.4392 129.15,58.9392 135.5,57C 136.435,54.6194 136.768,52.1194 136.5,49.5 Z"/></g>
<g><path style="opacity:1" fill="#e1191e" d="M 155.5,58.5 C 156.5,58.5 157.5,58.5 158.5,58.5C 159.167,58.5 159.833,58.5 160.5,58.5C 161.873,58.6567 163.207,58.49 164.5,58C 164.167,57.6667 163.833,57.3333 163.5,57C 165.23,55.1476 166.396,55.3143 167,57.5C 168.019,56.3128 169.186,55.3128 170.5,54.5C 173.432,57.9244 172.432,59.4244 167.5,59C 170.518,59.499 173.518,59.3323 176.5,58.5C 179.602,58.4966 179.935,58.9966 177.5,60C 179.9,60.1858 182.234,60.6858 184.5,61.5C 183.926,63.0589 183.26,64.5589 182.5,66C 180.19,66.4966 177.857,66.6633 175.5,66.5C 177.013,60.5009 176.346,60.1675 173.5,65.5C 166.124,66.8492 158.791,66.6826 151.5,65C 152.219,62.3829 153.553,60.2162 155.5,58.5 Z"/></g>
<g><path style="opacity:1" fill="#cd1a1c" d="M 149.5,56.5 C 149.245,59.0163 148.411,61.3496 147,63.5C 141.561,64.3164 136.227,63.6497 131,61.5C 130.086,62.6537 129.253,62.487 128.5,61C 133.476,60.0546 138.476,58.8879 143.5,57.5C 145.379,56.6586 147.379,56.3253 149.5,56.5 Z"/></g>
<g><path style="opacity:1" fill="#81ab36" d="M 181.5,53.5 C 183.213,54.6354 183.88,56.302 183.5,58.5C 181.146,58.162 178.813,57.662 176.5,57C 178.584,56.3028 180.251,55.1361 181.5,53.5 Z"/></g>
<g><path style="opacity:1" fill="#e5b829" d="M 274.5,56.5 C 272.584,60.1629 271.584,64.1629 271.5,68.5C 270.425,69.5624 269.425,69.5624 268.5,68.5C 270.92,61.5786 272.92,54.5786 274.5,47.5C 275.895,45.9456 276.561,46.279 276.5,48.5C 275.622,51.1298 274.955,53.7965 274.5,56.5 Z"/></g>
<g><path style="opacity:1" fill="#efc730" d="M 70.5,67.5 C 71.6602,69.2027 70.9935,69.8693 68.5,69.5C 68.1667,69.5 67.8333,69.5 67.5,69.5C 59.1665,65.5679 59.8332,63.2346 69.5,62.5C 69.2155,64.4147 69.5489,66.0813 70.5,67.5 Z"/></g>
<g><path style="opacity:0.999" fill="#dedcb1" d="M 79.5,64.5 C 80.1667,64.5 80.8333,64.5 81.5,64.5C 81.9175,65.2216 82.5842,65.7216 83.5,66C 88.5,66.3333 93.5,66.6667 98.5,67C 95.068,68.8193 91.4013,69.486 87.5,69C 87.8333,68.6667 88.1667,68.3333 88.5,68C 83.7332,67.6548 79.0665,66.8215 74.5,65.5C 74.1667,65.8333 73.8333,66.1667 73.5,66.5C 77.4482,67.6837 81.4482,68.6837 85.5,69.5C 82.9135,70.48 80.2469,70.8134 77.5,70.5C 75.351,69.2638 73.0177,68.2638 70.5,67.5C 70.5,66.1667 70.5,64.8333 70.5,63.5C 73.5176,63.7038 76.5176,64.0371 79.5,64.5 Z"/></g>
<g><path style="opacity:1" fill="#bbb08b" d="M 116.5,61.5 C 119.722,61.1081 122.722,61.6081 125.5,63C 124.167,63.3333 122.833,63.6667 121.5,64C 124.507,64.3013 127.507,64.1346 130.5,63.5C 130.5,64.5 130.5,65.5 130.5,66.5C 121.845,68.7501 113.178,70.4168 104.5,71.5C 102.833,71.5 101.167,71.5 99.5,71.5C 101.019,70.5902 102.685,69.7568 104.5,69C 103.351,67.2559 102.017,67.0892 100.5,68.5C 99.3044,68.1543 99.3044,67.6543 100.5,67C 103.5,66.6667 106.5,66.3333 109.5,66C 88.1667,65.3333 88.1667,64.6667 109.5,64C 110.056,63.6174 110.389,63.1174 110.5,62.5C 112.265,61.5386 114.265,61.2053 116.5,61.5 Z"/></g>
<g><path style="opacity:1" fill="#dbd9ae" d="M 175.5,71.5 C 172.545,72.1587 169.545,72.4921 166.5,72.5C 161.964,71.1892 157.297,70.5226 152.5,70.5C 148.764,69.0109 144.764,68.3442 140.5,68.5C 138.337,67.5309 136.004,66.6976 133.5,66C 132.007,64.8438 132.174,64.0104 134,63.5C 149.293,67.0178 164.793,68.8511 180.5,69C 178.825,69.9853 177.158,70.8186 175.5,71.5 Z"/></g>
<g><path style="opacity:0.999" fill="#e22828" d="M 264.5,94.5 C 263.391,94.5569 262.391,94.8902 261.5,95.5C 260.624,95.6309 259.957,95.2975 259.5,94.5C 262.176,86.805 264.842,79.1384 267.5,71.5C 268.167,71.5 268.5,71.1667 268.5,70.5C 269.791,70.7373 270.791,70.404 271.5,69.5C 273.806,69.0074 276.139,68.6741 278.5,68.5C 276.512,76.2974 274.012,83.964 271,91.5C 268.706,92.4217 266.539,93.4217 264.5,94.5 Z"/></g>
<g><path style="opacity:1" fill="#cbc49d" d="M 195.5,66.5 C 195.5,68.1667 195.5,69.8333 195.5,71.5C 188.734,72.8086 182.068,72.8086 175.5,71.5C 177.857,71.6633 180.19,71.4966 182.5,71C 182.167,70.6667 181.833,70.3333 181.5,70C 183.065,67.4333 185.232,65.5999 188,64.5C 190.544,65.0712 193.044,65.7379 195.5,66.5 Z"/></g>
<g><path style="opacity:1" fill="#df2b28" d="M 247.5,71.5 C 253.13,72.2919 258.797,72.6252 264.5,72.5C 265.043,72.56 265.376,72.8933 265.5,73.5C 262.901,80.7961 260.401,88.1294 258,95.5C 252.586,96.0747 247.086,96.0747 241.5,95.5C 238.5,95.5 235.5,95.5 232.5,95.5C 232.808,93.076 232.474,90.7427 231.5,88.5C 227.937,86.9629 224.603,87.2963 221.5,89.5C 220.135,91.7508 220.469,93.7508 222.5,95.5C 218.893,96.4892 215.226,96.8226 211.5,96.5C 209.265,96.7947 207.265,96.4614 205.5,95.5C 206.434,94.4324 206.768,93.099 206.5,91.5C 203.5,91.8333 202.167,90.5 202.5,87.5C 203.822,87.67 204.989,87.3366 206,86.5C 206.528,85.184 206.028,84.5173 204.5,84.5C 202.7,82.9496 200.533,81.9496 198,81.5C 197.814,78.9644 197.314,76.631 196.5,74.5C 196.286,72.8561 196.62,71.3561 197.5,70C 200.682,69.5931 203.849,69.0931 207,68.5C 207.833,68.8333 208.667,69.1667 209.5,69.5C 211.121,73.2443 213.121,76.7443 215.5,80C 224.033,84.4656 232.7,84.4656 241.5,80C 244.523,77.8225 246.523,74.9892 247.5,71.5 Z"/></g>
<g><path style="opacity:1" fill="#7f6246" d="M 110.5,62.5 C 110.389,63.1174 110.056,63.6174 109.5,64C 88.1667,64.6667 88.1667,65.3333 109.5,66C 106.5,66.3333 103.5,66.6667 100.5,67C 99.3044,67.6543 99.3044,68.1543 100.5,68.5C 102.017,67.0892 103.351,67.2559 104.5,69C 102.685,69.7568 101.019,70.5902 99.5,71.5C 96.3752,72.4794 93.0419,72.8128 89.5,72.5C 87.5992,72.4332 85.7659,72.7665 84,73.5C 81.8523,72.2698 79.6856,71.2698 77.5,70.5C 80.2469,70.8134 82.9135,70.48 85.5,69.5C 81.4482,68.6837 77.4482,67.6837 73.5,66.5C 73.8333,66.1667 74.1667,65.8333 74.5,65.5C 79.0665,66.8215 83.7332,67.6548 88.5,68C 88.1667,68.3333 87.8333,68.6667 87.5,69C 91.4013,69.486 95.068,68.8193 98.5,67C 93.5,66.6667 88.5,66.3333 83.5,66C 82.5842,65.7216 81.9175,65.2216 81.5,64.5C 91.1667,63.8333 100.833,63.1667 110.5,62.5 Z"/></g>
<g><path style="opacity:1" fill="#f6ce32" d="M 152.5,70.5 C 154.042,71.1635 155.709,71.8302 157.5,72.5C 147.112,76.5275 137.112,81.3609 127.5,87C 129.381,86.904 131.047,87.0707 132.5,87.5C 130.074,89.2185 127.407,89.7185 124.5,89C 122.5,87.3333 120.5,85.6667 118.5,84C 119.833,83.3333 119.833,82.6667 118.5,82C 114.376,79.6028 110.043,77.7694 105.5,76.5C 100.237,74.8909 94.9042,73.5575 89.5,72.5C 93.0419,72.8128 96.3752,72.4794 99.5,71.5C 101.167,71.5 102.833,71.5 104.5,71.5C 107.833,71.8333 111.167,72.1667 114.5,72.5C 117.271,74.4399 120.271,74.4399 123.5,72.5C 125.333,73.0521 127,73.8855 128.5,75C 126.122,75.9745 126.456,76.6411 129.5,77C 130.126,77.7504 130.626,78.5838 131,79.5C 134.494,77.3328 137.994,75.1661 141.5,73C 138.833,72.3333 138.833,71.6667 141.5,71C 145.152,70.5014 148.818,70.3347 152.5,70.5 Z"/></g>
<g><path style="opacity:1" fill="#ad8523" d="M 140.5,68.5 C 144.764,68.3442 148.764,69.0109 152.5,70.5C 148.818,70.3347 145.152,70.5014 141.5,71C 138.833,71.6667 138.833,72.3333 141.5,73C 137.994,75.1661 134.494,77.3328 131,79.5C 130.626,78.5838 130.126,77.7504 129.5,77C 126.456,76.6411 126.122,75.9745 128.5,75C 127,73.8855 125.333,73.0521 123.5,72.5C 120.271,74.4399 117.271,74.4399 114.5,72.5C 123.09,70.1788 131.757,68.8454 140.5,68.5 Z"/></g>
<g><path style="opacity:1" fill="#b38b23" d="M 77.5,70.5 C 79.6856,71.2698 81.8523,72.2698 84,73.5C 85.7659,72.7665 87.5992,72.4332 89.5,72.5C 94.9042,73.5575 100.237,74.8909 105.5,76.5C 104.726,77.1471 103.726,77.4805 102.5,77.5C 93.3156,76.7295 84.3156,75.0628 75.5,72.5C 74.3398,70.7973 75.0065,70.1307 77.5,70.5 Z"/></g>
<g><path style="opacity:1" fill="#3ca041" d="M 67.5,69.5 C 67.8333,69.5 68.1667,69.5 68.5,69.5C 69.8083,70.2323 71.1416,71.0656 72.5,72C 68.7545,73.1996 65.7545,75.3662 63.5,78.5C 60.6092,79.6781 57.6092,80.3447 54.5,80.5C 54.5,79.5 54.5,78.5 54.5,77.5C 60.1303,78.6749 62.6303,76.6749 62,71.5C 63.4443,69.8446 65.2776,69.178 67.5,69.5 Z"/></g>
<g><path style="opacity:1" fill="#752416" d="M 194.5,87.5 C 191.628,91.4681 187.628,93.1347 182.5,92.5C 168.348,92.7878 155.348,91.9545 143.5,90C 148.621,88.5768 148.621,87.5768 143.5,87C 144.328,86.0853 145.328,85.4186 146.5,85C 149.224,85.1375 151.557,85.6375 153.5,86.5C 155.833,84.6667 158.167,82.8333 160.5,81C 160.167,80.6667 159.833,80.3333 159.5,80C 163.926,79.3413 168.092,78.1746 172,76.5C 172.308,77.3081 172.808,77.9747 173.5,78.5C 174.719,75.9407 176.719,74.6074 179.5,74.5C 184.762,75.0866 189.595,76.7533 194,79.5C 194.497,82.146 194.664,84.8127 194.5,87.5 Z"/></g>
<g><path style="opacity:1" fill="#3d9c3f" d="M 46.5,81.5 C 51.8134,82.4494 57.1467,82.6161 62.5,82C 63.0736,86.1483 64.7402,89.8149 67.5,93C 66.6634,94.0113 66.33,95.1779 66.5,96.5C 62.0516,96.8494 58.5516,95.1827 56,91.5C 55.5774,92.9561 54.7441,93.4561 53.5,93C 52.1667,92 52.1667,91 53.5,90C 51.6992,89.6827 51.3659,89.016 52.5,88C 50.925,88.379 49.425,88.2123 48,87.5C 47.187,85.5643 46.687,83.5643 46.5,81.5 Z"/></g>
<g><path style="opacity:1" fill="#602412" d="M 175.5,71.5 C 182.068,72.8086 188.734,72.8086 195.5,71.5C 195.167,72.8333 194.833,74.1667 194.5,75.5C 192.164,73.6093 189.498,73.1093 186.5,74C 189.008,75.4502 191.675,76.6168 194.5,77.5C 195.107,77.3764 195.44,77.0431 195.5,76.5C 196.338,76.1583 196.672,75.4916 196.5,74.5C 197.314,76.631 197.814,78.9644 198,81.5C 200.533,81.9496 202.7,82.9496 204.5,84.5C 201.887,83.5651 199.221,83.3985 196.5,84C 195.915,85.3024 195.249,86.469 194.5,87.5C 194.664,84.8127 194.497,82.146 194,79.5C 189.595,76.7533 184.762,75.0866 179.5,74.5C 176.719,74.6074 174.719,75.9407 173.5,78.5C 172.808,77.9747 172.308,77.3081 172,76.5C 168.092,78.1746 163.926,79.3413 159.5,80C 159.833,80.3333 160.167,80.6667 160.5,81C 158.167,82.8333 155.833,84.6667 153.5,86.5C 151.557,85.6375 149.224,85.1375 146.5,85C 145.328,85.4186 144.328,86.0853 143.5,87C 148.621,87.5768 148.621,88.5768 143.5,90C 155.348,91.9545 168.348,92.7878 182.5,92.5C 181.048,93.3019 179.382,93.8019 177.5,94C 179.175,94.9853 180.842,95.8186 182.5,96.5C 180.173,96.2471 178.173,96.9137 176.5,98.5C 175.261,98.0576 174.261,97.3909 173.5,96.5C 177.29,96.9923 177.956,96.159 175.5,94C 153.653,92.5229 131.82,91.0229 110,89.5C 103.056,89.9431 96.2232,90.9431 89.5,92.5C 87.8008,92.6602 86.1341,92.4935 84.5,92C 89.8487,88.3359 89.5153,87.8359 83.5,90.5C 83.5,89.5 83.5,88.5 83.5,87.5C 79.5799,91.3785 76.9132,90.3785 75.5,84.5C 74.549,85.3256 73.549,85.4922 72.5,85C 73.9842,83.4263 75.6508,82.093 77.5,81C 73.8985,80.3654 73.2318,79.032 75.5,77C 73.5,76.6667 71.5,76.3333 69.5,76C 71.3875,74.6063 73.3875,73.4396 75.5,72.5C 84.3156,75.0628 93.3156,76.7295 102.5,77.5C 103.726,77.4805 104.726,77.1471 105.5,76.5C 110.043,77.7694 114.376,79.6028 118.5,82C 119.833,82.6667 119.833,83.3333 118.5,84C 120.5,85.6667 122.5,87.3333 124.5,89C 127.407,89.7185 130.074,89.2185 132.5,87.5C 142.998,80.2432 154.331,75.2432 166.5,72.5C 169.545,72.4921 172.545,72.1587 175.5,71.5 Z"/></g>
<g><path style="opacity:1" fill="#dbb32c" d="M 194.5,75.5 C 194.5,76.1667 194.833,76.5 195.5,76.5C 195.44,77.0431 195.107,77.3764 194.5,77.5C 191.675,76.6168 189.008,75.4502 186.5,74C 189.498,73.1093 192.164,73.6093 194.5,75.5 Z"/></g>
<g><path style="opacity:1" fill="#b99125" d="M 152.5,70.5 C 157.297,70.5226 161.964,71.1892 166.5,72.5C 154.331,75.2432 142.998,80.2432 132.5,87.5C 131.047,87.0707 129.381,86.904 127.5,87C 137.112,81.3609 147.112,76.5275 157.5,72.5C 155.709,71.8302 154.042,71.1635 152.5,70.5 Z"/></g>
<g><path style="opacity:1" fill="#468737" d="M 204.5,84.5 C 206.028,84.5173 206.528,85.184 206,86.5C 204.989,87.3366 203.822,87.67 202.5,87.5C 202.167,90.5 203.5,91.8333 206.5,91.5C 206.768,93.099 206.434,94.4324 205.5,95.5C 201.452,95.3946 197.452,95.7279 193.5,96.5C 191.956,96.2969 190.622,95.6302 189.5,94.5C 188.818,95.2427 188.151,95.9094 187.5,96.5C 185.833,96.5 184.167,96.5 182.5,96.5C 180.842,95.8186 179.175,94.9853 177.5,94C 179.382,93.8019 181.048,93.3019 182.5,92.5C 187.628,93.1347 191.628,91.4681 194.5,87.5C 195.249,86.469 195.915,85.3024 196.5,84C 199.221,83.3985 201.887,83.5651 204.5,84.5 Z"/></g>
<g><path style="opacity:1" fill="#f49f1e" d="M 134.5,94.5 C 136.265,95.4614 138.265,95.7947 140.5,95.5C 148.199,96.667 155.532,98.0003 162.5,99.5C 163.696,99.8457 163.696,100.346 162.5,101C 163.549,101.492 164.549,101.326 165.5,100.5C 165.833,101.167 166.167,101.833 166.5,102.5C 167.891,101.355 169.224,101.355 170.5,102.5C 170.222,105.067 170.056,107.733 170,110.5C 168.301,111.406 166.467,111.739 164.5,111.5C 156.826,111.334 149.159,111.5 141.5,112C 140.944,112.383 140.611,112.883 140.5,113.5C 139.833,113.5 139.5,113.833 139.5,114.5C 138.833,115.167 138.167,115.833 137.5,116.5C 137.762,115.022 137.429,113.689 136.5,112.5C 136.167,112.667 135.833,112.833 135.5,113C 136.435,115.381 136.768,117.881 136.5,120.5C 135.784,118.444 135.117,116.277 134.5,114C 130.973,113.192 127.64,113.359 124.5,114.5C 123.833,114.5 123.167,114.5 122.5,114.5C 122.06,116.844 121.06,118.844 119.5,120.5C 119.167,109.833 118.833,109.833 118.5,120.5C 117.784,118.444 117.117,116.277 116.5,114C 112.848,113.501 109.182,113.335 105.5,113.5C 105.167,112.167 104.833,112.167 104.5,113.5C 102.833,113.5 101.167,113.5 99.5,113.5C 94.0252,111.717 88.3585,111.051 82.5,111.5C 79.4115,110.215 76.0781,109.549 72.5,109.5C 72.298,107.05 72.6314,104.717 73.5,102.5C 74.8762,107.717 76.0428,107.383 77,101.5C 77.8866,104.708 79.5532,104.708 82,101.5C 82.3333,102.167 82.6667,102.833 83,103.5C 85.295,103.311 87.295,101.977 89,99.5C 90.3946,100.815 91.3946,100.481 92,98.5C 94.0109,99.7172 96.0109,99.3839 98,97.5C 100.879,98.7109 103.713,98.7109 106.5,97.5C 108.271,96.9646 108.604,96.1313 107.5,95C 116.386,94.7425 125.386,94.5759 134.5,94.5 Z"/></g>
<g><path style="opacity:1" fill="#d4ab2a" d="M 173.5,96.5 C 168.19,98.5357 168.523,100.036 174.5,101C 169.034,100.517 163.7,99.1841 158.5,97C 153.666,96.1665 148.833,95.3332 144,94.5C 142.615,94.5143 141.449,94.8476 140.5,95.5C 138.265,95.7947 136.265,95.4614 134.5,94.5C 124.883,93.3491 113.883,93.1825 101.5,94C 92.7422,95.8561 84.0755,98.0228 75.5,100.5C 74.828,99.7326 73.9947,99.0659 73,98.5C 71.992,100.259 70.492,101.426 68.5,102C 65.7163,102.892 63.0496,104.058 60.5,105.5C 59.8933,105.376 59.56,105.043 59.5,104.5C 60.1616,102.53 60.8283,100.53 61.5,98.5C 63.0064,97.2528 64.5064,97.2528 66,98.5C 67.1882,97.4366 67.6882,96.1033 67.5,94.5C 69.1238,94.3601 70.2904,95.0267 71,96.5C 77.4235,95.9832 83.5902,94.6498 89.5,92.5C 96.2232,90.9431 103.056,89.9431 110,89.5C 131.82,91.0229 153.653,92.5229 175.5,94C 177.956,96.159 177.29,96.9923 173.5,96.5 Z"/></g>
<g><path style="opacity:0.999" fill="#eecb00" d="M 241.5,95.5 C 246.25,97.0308 251.25,97.6975 256.5,97.5C 256.912,99.9726 255.912,101.306 253.5,101.5C 249.19,100.92 244.857,100.586 240.5,100.5C 236.18,99.8342 231.68,99.5009 227,99.5C 220.586,99.2886 214.419,99.9552 208.5,101.5C 207.833,101.5 207.167,101.5 206.5,101.5C 204.833,101.5 203.167,101.5 201.5,101.5C 201.5,100.5 201.5,99.5 201.5,98.5C 205.04,98.2474 208.373,97.5808 211.5,96.5C 215.226,96.8226 218.893,96.4892 222.5,95.5C 220.469,93.7508 220.135,91.7508 221.5,89.5C 224.603,87.2963 227.937,86.9629 231.5,88.5C 232.474,90.7427 232.808,93.076 232.5,95.5C 235.5,95.5 238.5,95.5 241.5,95.5 Z"/></g>
<g><path style="opacity:1" fill="#96221c" d="M 224.5,88.5 C 229.5,87.5 231.5,89.5 230.5,94.5C 224.591,95.9256 222.591,93.9256 224.5,88.5 Z"/></g>
<g><path style="opacity:0.998" fill="#ddbc01" d="M 267.5,97.5 C 264.759,97.7073 262.426,98.7073 260.5,100.5C 259.325,100.719 258.325,100.386 257.5,99.5C 258.549,97.7844 259.882,96.4511 261.5,95.5C 262.391,94.8902 263.391,94.5569 264.5,94.5C 266.674,94.0798 268.674,94.0798 270.5,94.5C 269.66,95.735 268.66,96.735 267.5,97.5 Z"/></g>
<g><path style="opacity:1" fill="#e7b829" d="M 193.5,96.5 C 193.642,101.253 193.975,105.92 194.5,110.5C 193.833,111.167 193.167,111.833 192.5,112.5C 184.337,111.164 178.503,114.164 175,121.5C 174.667,128.833 174.333,136.167 174,143.5C 173.186,135.587 173.353,127.754 174.5,120C 173.552,119.517 172.552,119.351 171.5,119.5C 171.167,119.5 170.833,119.5 170.5,119.5C 170.567,118.041 170.234,116.708 169.5,115.5C 170.158,114.602 170.824,113.602 171.5,112.5C 171.88,114.021 172.046,115.687 172,117.5C 172.317,115.699 172.984,115.366 174,116.5C 174.402,115.128 174.902,113.795 175.5,112.5C 178.764,111.473 181.764,110.807 184.5,110.5C 181.578,110.101 178.578,109.934 175.5,110C 174.773,108.601 174.273,107.101 174,105.5C 173.64,107.608 172.973,109.608 172,111.5C 171.503,108.854 171.336,106.187 171.5,103.5C 174.976,104.455 178.643,105.455 182.5,106.5C 182.833,106.333 183.167,106.167 183.5,106C 182.32,103.402 180.32,101.736 177.5,101C 178.108,100.13 178.941,99.6301 180,99.5C 181.011,99.8919 181.511,100.559 181.5,101.5C 183.824,101.123 184.491,100.123 183.5,98.5C 184.949,97.8281 186.282,97.1614 187.5,96.5C 188.151,95.9094 188.818,95.2427 189.5,94.5C 190.622,95.6302 191.956,96.2969 193.5,96.5 Z"/></g>
<g><path style="opacity:0.965" fill="#622311" d="M 264.5,72.5 C 265.209,71.596 266.209,71.2627 267.5,71.5C 264.842,79.1384 262.176,86.805 259.5,94.5C 259.957,95.2975 260.624,95.6309 261.5,95.5C 259.882,96.4511 258.549,97.7844 257.5,99.5C 258.325,100.386 259.325,100.719 260.5,100.5C 259.469,101.249 258.302,101.915 257,102.5C 255.727,105.489 254.561,108.489 253.5,111.5C 253.167,111.5 252.833,111.5 252.5,111.5C 254.167,108.214 254.5,104.88 253.5,101.5C 255.912,101.306 256.912,99.9726 256.5,97.5C 251.25,97.6975 246.25,97.0308 241.5,95.5C 247.086,96.0747 252.586,96.0747 258,95.5C 260.401,88.1294 262.901,80.7961 265.5,73.5C 265.376,72.8933 265.043,72.56 264.5,72.5 Z"/></g>
<g><path style="opacity:0.702" fill="#271408" d="M 205.5,95.5 C 207.265,96.4614 209.265,96.7947 211.5,96.5C 208.373,97.5808 205.04,98.2474 201.5,98.5C 201.5,99.5 201.5,100.5 201.5,101.5C 203.167,101.5 204.833,101.5 206.5,101.5C 205.432,102.434 204.099,102.768 202.5,102.5C 203.022,107.533 203.689,112.533 204.5,117.5C 204.5,117.833 204.5,118.167 204.5,118.5C 202.926,117.016 201.593,115.349 200.5,113.5C 199.833,108.167 199.167,102.833 198.5,97.5C 197.5,97.5 196.5,97.5 195.5,97.5C 195.628,101.881 195.295,106.215 194.5,110.5C 193.975,105.92 193.642,101.253 193.5,96.5C 197.452,95.7279 201.452,95.3946 205.5,95.5 Z"/></g>
<g><path style="opacity:1" fill="#774312" d="M 134.5,94.5 C 125.386,94.5759 116.386,94.7425 107.5,95C 108.604,96.1313 108.271,96.9646 106.5,97.5C 103.713,98.7109 100.879,98.7109 98,97.5C 96.0109,99.3839 94.0109,99.7172 92,98.5C 91.3946,100.481 90.3946,100.815 89,99.5C 87.295,101.977 85.295,103.311 83,103.5C 82.6667,102.833 82.3333,102.167 82,101.5C 79.5532,104.708 77.8866,104.708 77,101.5C 76.0428,107.383 74.8762,107.717 73.5,102.5C 74.1667,101.833 74.8333,101.167 75.5,100.5C 84.0755,98.0228 92.7422,95.8561 101.5,94C 113.883,93.1825 124.883,93.3491 134.5,94.5 Z"/></g>
<g><path style="opacity:0.999" fill="#de2a27" d="M 267.5,97.5 C 268.124,97.9169 268.457,98.5836 268.5,99.5C 267.879,104.388 266.212,108.722 263.5,112.5C 262.833,112.5 262.167,112.5 261.5,112.5C 259.052,111.527 256.385,111.194 253.5,111.5C 254.561,108.489 255.727,105.489 257,102.5C 258.302,101.915 259.469,101.249 260.5,100.5C 262.426,98.7073 264.759,97.7073 267.5,97.5 Z"/></g>
<g><path style="opacity:0.941" fill="#4f3905" d="M 240.5,100.5 C 229.815,100.39 219.148,100.723 208.5,101.5C 214.419,99.9552 220.586,99.2886 227,99.5C 231.68,99.5009 236.18,99.8342 240.5,100.5 Z"/></g>
<g><path style="opacity:1" fill="#e33a29" d="M 240.5,100.5 C 244.857,100.586 249.19,100.92 253.5,101.5C 254.5,104.88 254.167,108.214 252.5,111.5C 248.154,111.334 243.821,111.501 239.5,112C 238.619,112.708 237.953,113.542 237.5,114.5C 236.833,116.167 236.167,117.833 235.5,119.5C 235.662,117.473 235.495,115.473 235,113.5C 234.617,112.944 234.117,112.611 233.5,112.5C 225.677,111.344 217.677,111.177 209.5,112C 208.944,112.383 208.611,112.883 208.5,113.5C 208.5,125.833 208.5,138.167 208.5,150.5C 207.669,138.674 207.169,126.674 207,114.5C 206.148,115.571 205.315,116.571 204.5,117.5C 203.689,112.533 203.022,107.533 202.5,102.5C 204.099,102.768 205.432,102.434 206.5,101.5C 207.167,101.5 207.833,101.5 208.5,101.5C 219.148,100.723 229.815,100.39 240.5,100.5 Z"/></g>
<g><path style="opacity:1" fill="#a36d1a" d="M 75.5,100.5 C 74.8333,101.167 74.1667,101.833 73.5,102.5C 72.6314,104.717 72.298,107.05 72.5,109.5C 76.0781,109.549 79.4115,110.215 82.5,111.5C 79.4212,111.74 76.4212,111.407 73.5,110.5C 72.5481,112.045 72.2148,113.712 72.5,115.5C 71.8333,115.5 71.5,115.833 71.5,116.5C 67.1808,114.078 65.5141,110.578 66.5,106C 63.9792,106.73 61.3126,107.23 58.5,107.5C 58.2627,106.209 58.596,105.209 59.5,104.5C 59.56,105.043 59.8933,105.376 60.5,105.5C 63.0496,104.058 65.7163,102.892 68.5,102C 70.492,101.426 71.992,100.259 73,98.5C 73.9947,99.0659 74.828,99.7326 75.5,100.5 Z"/></g>
<g><path style="opacity:1" fill="#8e5213" d="M 97.5,101.5 C 103.31,100.51 109.31,100.177 115.5,100.5C 116.283,104.146 116.45,107.812 116,111.5C 115.174,108.207 114.674,104.874 114.5,101.5C 108.833,101.5 103.167,101.5 97.5,101.5 Z"/></g>
<g><path style="opacity:1" fill="#dad60c" d="M 164.5,111.5 C 165.919,112.451 167.585,112.784 169.5,112.5C 169.5,113.5 169.5,114.5 169.5,115.5C 170.234,116.708 170.567,118.041 170.5,119.5C 168.94,116.592 166.606,114.425 163.5,113C 156.321,112.179 149.321,112.345 142.5,113.5C 141.833,113.5 141.167,113.5 140.5,113.5C 140.611,112.883 140.944,112.383 141.5,112C 149.159,111.5 156.826,111.334 164.5,111.5 Z"/></g>
<g><path style="opacity:1" fill="#d7bd0e" d="M 233.5,112.5 C 225.648,112.175 217.982,112.508 210.5,113.5C 209.833,113.5 209.167,113.5 208.5,113.5C 208.611,112.883 208.944,112.383 209.5,112C 217.677,111.177 225.677,111.344 233.5,112.5 Z"/></g>
<g><path style="opacity:1" fill="#cfb81a" d="M 82.5,111.5 C 88.3585,111.051 94.0252,111.717 99.5,113.5C 100.209,114.404 101.209,114.737 102.5,114.5C 103.335,118.34 103.335,122.006 102.5,125.5C 102.737,124.209 102.404,123.209 101.5,122.5C 100.371,119.082 98.3706,116.249 95.5,114C 88.5,113.333 81.5,113.333 74.5,114C 73.5115,126.086 73.1782,138.253 73.5,150.5C 72.5051,139.012 72.1717,127.345 72.5,115.5C 72.2148,113.712 72.5481,112.045 73.5,110.5C 76.4212,111.407 79.4212,111.74 82.5,111.5 Z M 86.5,122.5 C 87.8333,122.5 88.5,123.167 88.5,124.5C 88.5,123.167 87.8333,122.5 86.5,122.5 Z"/></g>
<g><path style="opacity:1" fill="#e09927" d="M 142.5,113.5 C 149.321,112.345 156.321,112.179 163.5,113C 166.606,114.425 168.94,116.592 170.5,119.5C 170.5,120.167 170.167,120.5 169.5,120.5C 167.691,117.861 165.358,115.694 162.5,114C 155.842,113.5 149.175,113.334 142.5,113.5 Z"/></g>
<g><path style="opacity:1" fill="#855215" d="M 140.5,95.5 C 141.449,94.8476 142.615,94.5143 144,94.5C 148.833,95.3332 153.666,96.1665 158.5,97C 163.7,99.1841 169.034,100.517 174.5,101C 168.523,100.036 168.19,98.5357 173.5,96.5C 174.261,97.3909 175.261,98.0576 176.5,98.5C 178.173,96.9137 180.173,96.2471 182.5,96.5C 184.167,96.5 185.833,96.5 187.5,96.5C 186.282,97.1614 184.949,97.8281 183.5,98.5C 184.491,100.123 183.824,101.123 181.5,101.5C 181.511,100.559 181.011,99.8919 180,99.5C 178.941,99.6301 178.108,100.13 177.5,101C 180.32,101.736 182.32,103.402 183.5,106C 183.167,106.167 182.833,106.333 182.5,106.5C 178.643,105.455 174.976,104.455 171.5,103.5C 171.336,106.187 171.503,108.854 172,111.5C 172.973,109.608 173.64,107.608 174,105.5C 174.273,107.101 174.773,108.601 175.5,110C 178.578,109.934 181.578,110.101 184.5,110.5C 181.764,110.807 178.764,111.473 175.5,112.5C 174.902,113.795 174.402,115.128 174,116.5C 172.984,115.366 172.317,115.699 172,117.5C 172.046,115.687 171.88,114.021 171.5,112.5C 170.824,113.602 170.158,114.602 169.5,115.5C 169.5,114.5 169.5,113.5 169.5,112.5C 167.585,112.784 165.919,112.451 164.5,111.5C 166.467,111.739 168.301,111.406 170,110.5C 170.056,107.733 170.222,105.067 170.5,102.5C 169.224,101.355 167.891,101.355 166.5,102.5C 166.167,101.833 165.833,101.167 165.5,100.5C 164.549,101.326 163.549,101.492 162.5,101C 163.696,100.346 163.696,99.8457 162.5,99.5C 155.532,98.0003 148.199,96.667 140.5,95.5 Z"/></g>
<g><path style="opacity:0.967" fill="#76467e" d="M 192.5,112.5 C 198.093,113.761 201.759,117.094 203.5,122.5C 203.5,122.833 203.5,123.167 203.5,123.5C 202.306,124.777 200.64,125.444 198.5,125.5C 195.273,125.552 192.273,124.885 189.5,123.5C 187.42,123.686 185.92,124.686 185,126.5C 184.501,130.486 184.334,134.486 184.5,138.5C 184.5,139.167 184.833,139.5 185.5,139.5C 185.5,140.167 185.833,140.5 186.5,140.5C 186.5,141.167 186.833,141.5 187.5,141.5C 189.553,141.598 191.22,140.931 192.5,139.5C 193.451,138.081 193.784,136.415 193.5,134.5C 192.5,134.5 191.5,134.5 190.5,134.5C 190.5,133.167 190.5,131.833 190.5,130.5C 194.399,129.209 198.399,129.209 202.5,130.5C 202.5,131.167 202.833,131.5 203.5,131.5C 203.5,131.833 203.5,132.167 203.5,132.5C 203.5,133.167 203.833,133.5 204.5,133.5C 205.866,145.178 200.866,151.511 189.5,152.5C 185.122,152.116 181.122,150.95 177.5,149C 182.387,153.08 188.053,154.58 194.5,153.5C 190.019,154.648 185.352,154.815 180.5,154C 177.039,152.695 174.372,150.529 172.5,147.5C 172.672,146.508 172.338,145.842 171.5,145.5C 171.5,144.833 171.5,144.167 171.5,143.5C 171.5,139.5 171.5,135.5 171.5,131.5C 171.342,128.098 171.676,124.764 172.5,121.5C 172.5,120.833 172.167,120.5 171.5,120.5C 171.5,120.167 171.5,119.833 171.5,119.5C 172.552,119.351 173.552,119.517 174.5,120C 173.353,127.754 173.186,135.587 174,143.5C 174.333,136.167 174.667,128.833 175,121.5C 178.503,114.164 184.337,111.164 192.5,112.5 Z M 187.5,136.5 C 189.19,136.856 190.19,137.856 190.5,139.5C 188.5,139.5 187.5,138.5 187.5,136.5 Z"/></g>
<g><path style="opacity:1" fill="#d84431" d="M 210.5,113.5 C 217.982,112.508 225.648,112.175 233.5,112.5C 234.623,114.979 234.623,117.312 233.5,119.5C 232.776,117.782 232.109,115.948 231.5,114C 224.508,113.5 217.508,113.334 210.5,113.5 Z"/></g>
<g><path style="opacity:1" fill="#9e3c49" d="M 240.5,113.5 C 247.313,112.509 254.313,112.175 261.5,112.5C 262.167,113.167 262.833,113.833 263.5,114.5C 255.836,114.111 248.17,113.778 240.5,113.5 Z"/></g>
<g><path style="opacity:0.981" fill="#76457f" d="M 101.5,122.5 C 101.98,126.306 100.98,129.639 98.5,132.5C 102.24,138.079 102.407,143.746 99,149.5C 98.2496,150.126 97.4162,150.626 96.5,151C 88.7845,151.767 81.1179,151.6 73.5,150.5C 73.1782,138.253 73.5115,126.086 74.5,114C 81.5,113.333 88.5,113.333 95.5,114C 98.3706,116.249 100.371,119.082 101.5,122.5 Z M 86.5,122.5 C 87.8333,122.5 88.5,123.167 88.5,124.5C 88.5,123.167 87.8333,122.5 86.5,122.5 Z M 86.5,139.5 C 87.8333,139.5 88.5,140.167 88.5,141.5C 88.5,140.167 87.8333,139.5 86.5,139.5 Z"/></g>
<g><path style="opacity:1" fill="#8f6f5d" d="M 99.5,113.5 C 101.167,113.5 102.833,113.5 104.5,113.5C 104.5,122.5 104.5,131.5 104.5,140.5C 104.167,140.5 103.833,140.5 103.5,140.5C 102.781,138.236 102.448,135.903 102.5,133.5C 102.5,132.5 102.5,131.5 102.5,130.5C 102.5,128.833 102.5,127.167 102.5,125.5C 103.335,122.006 103.335,118.34 102.5,114.5C 101.209,114.737 100.209,114.404 99.5,113.5 Z"/></g>
<g><path style="opacity:1" fill="#a6a83d" d="M 105.5,113.5 C 105.334,123.172 105.5,132.839 106,142.5C 107.094,144.078 107.928,145.745 108.5,147.5C 105.888,145.948 104.555,143.614 104.5,140.5C 104.5,131.5 104.5,122.5 104.5,113.5C 104.833,112.167 105.167,112.167 105.5,113.5 Z"/></g>
<g><path style="opacity:0.993" fill="#754480" d="M 105.5,113.5 C 109.182,113.335 112.848,113.501 116.5,114C 117.117,116.277 117.784,118.444 118.5,120.5C 118.5,120.833 118.5,121.167 118.5,121.5C 117.167,127.5 117.167,133.5 118.5,139.5C 119.568,140.434 120.901,140.768 122.5,140.5C 123.117,140.389 123.617,140.056 124,139.5C 124.5,131.173 124.666,122.84 124.5,114.5C 127.64,113.359 130.973,113.192 134.5,114C 135.117,116.277 135.784,118.444 136.5,120.5C 136.666,127.175 136.5,133.842 136,140.5C 133.053,150.078 126.553,153.911 116.5,152C 113.688,150.672 111.022,149.172 108.5,147.5C 107.928,145.745 107.094,144.078 106,142.5C 105.5,132.839 105.334,123.172 105.5,113.5 Z"/></g>
<g><path style="opacity:0.991" fill="#754480" d="M 140.5,113.5 C 141.167,113.5 141.833,113.5 142.5,113.5C 149.175,113.334 155.842,113.5 162.5,114C 165.358,115.694 167.691,117.861 169.5,120.5C 169.5,121.5 169.5,122.5 169.5,123.5C 169.5,124.167 169.833,124.5 170.5,124.5C 169.187,129.452 168.187,134.452 167.5,139.5C 167.5,140.167 167.833,140.5 168.5,140.5C 168.5,141.5 168.5,142.5 168.5,143.5C 168.5,144.167 168.833,144.5 169.5,144.5C 169.5,145.833 169.5,147.167 169.5,148.5C 169.5,148.833 169.5,149.167 169.5,149.5C 169.672,150.492 169.338,151.158 168.5,151.5C 165.15,151.665 161.817,151.498 158.5,151C 156.281,147.441 154.615,143.608 153.5,139.5C 152.534,141.396 152.201,143.396 152.5,145.5C 151.596,146.209 151.263,147.209 151.5,148.5C 151.5,149.5 151.5,150.5 151.5,151.5C 147.894,151.789 144.394,151.456 141,150.5C 140.5,138.171 140.333,125.838 140.5,113.5 Z"/></g>
<g><path style="opacity:0.977" fill="#754480" d="M 208.5,113.5 C 209.167,113.5 209.833,113.5 210.5,113.5C 217.508,113.334 224.508,113.5 231.5,114C 232.109,115.948 232.776,117.782 233.5,119.5C 233.5,120.5 233.5,121.5 233.5,122.5C 229.167,122.5 224.833,122.5 220.5,122.5C 220.5,124.167 220.5,125.833 220.5,127.5C 228.512,125.489 231.845,128.489 230.5,136.5C 227.482,136.335 224.482,136.502 221.5,137C 220.446,138.388 220.28,139.888 221,141.5C 224.73,142.46 228.563,142.793 232.5,142.5C 232.5,143.167 232.833,143.5 233.5,143.5C 233.5,146.167 233.5,148.833 233.5,151.5C 225.082,151.802 216.748,151.469 208.5,150.5C 208.5,138.167 208.5,125.833 208.5,113.5 Z"/></g>
<g><path style="opacity:0.985" fill="#75457f" d="M 240.5,113.5 C 248.17,113.778 255.836,114.111 263.5,114.5C 264.5,114.833 265.167,115.5 265.5,116.5C 265.5,117.167 265.833,117.5 266.5,117.5C 267.665,119.835 268.332,122.335 268.5,125C 267.802,128.924 266.802,132.757 265.5,136.5C 266.33,140.149 266.996,143.815 267.5,147.5C 267.5,148.167 267.833,148.5 268.5,148.5C 268.586,149.496 268.252,150.329 267.5,151C 263.833,151.667 260.167,151.667 256.5,151C 253.249,147.829 252.915,148.163 255.5,152C 259.356,152.177 263.023,152.677 266.5,153.5C 261.053,155.343 256.053,154.676 251.5,151.5C 251.337,149.143 251.503,146.81 252,144.5C 252.799,148.424 253.299,148.424 253.5,144.5C 253.563,142.519 252.896,140.852 251.5,139.5C 250.803,143.377 250.136,147.21 249.5,151C 245.779,151.678 242.112,151.511 238.5,150.5C 238.333,138.495 238.5,126.495 239,114.5C 239.383,113.944 239.883,113.611 240.5,113.5 Z"/></g>
<g><path style="opacity:1" fill="#9a924b" d="M 122.5,114.5 C 123.167,114.5 123.833,114.5 124.5,114.5C 124.666,122.84 124.5,131.173 124,139.5C 123.617,140.056 123.117,140.389 122.5,140.5C 122.5,140.167 122.5,139.833 122.5,139.5C 122.5,131.167 122.5,122.833 122.5,114.5 Z"/></g>
<g><path style="opacity:1" fill="#8d755d" d="M 139.5,114.5 C 139.5,126.167 139.5,137.833 139.5,149.5C 138.833,146.5 138.167,143.5 137.5,140.5C 137.5,132.5 137.5,124.5 137.5,116.5C 138.167,115.833 138.833,115.167 139.5,114.5 Z"/></g>
<g><path style="opacity:1" fill="#bdc520" d="M 252.5,111.5 C 252.833,111.5 253.167,111.5 253.5,111.5C 256.385,111.194 259.052,111.527 261.5,112.5C 254.313,112.175 247.313,112.509 240.5,113.5C 239.883,113.611 239.383,113.944 239,114.5C 238.5,126.495 238.333,138.495 238.5,150.5C 237.505,138.678 237.172,126.678 237.5,114.5C 237.953,113.542 238.619,112.708 239.5,112C 243.821,111.501 248.154,111.334 252.5,111.5 Z"/></g>
<g><path style="opacity:0.313" fill="#75457e" d="M 72.5,115.5 C 72.1717,127.345 72.5051,139.012 73.5,150.5C 80.7605,152.465 88.4271,153.132 96.5,152.5C 95.7375,153.268 94.7375,153.768 93.5,154C 86.8333,154.667 80.1667,154.667 73.5,154C 72.6919,153.692 72.0253,153.192 71.5,152.5C 70.5218,141.218 70.1884,129.885 70.5,118.5C 70.8333,117.833 71.1667,117.167 71.5,116.5C 71.5,115.833 71.8333,115.5 72.5,115.5 Z"/></g>
<g><path style="opacity:0.769" fill="#76436e" d="M 122.5,114.5 C 122.5,122.833 122.5,131.167 122.5,139.5C 121.833,139.5 121.5,139.167 121.5,138.5C 121.821,132.974 121.488,127.64 120.5,122.5C 120.167,121.833 119.833,121.167 119.5,120.5C 121.06,118.844 122.06,116.844 122.5,114.5 Z"/></g>
<g><path style="opacity:0.37" fill="#774a7a" d="M 237.5,114.5 C 237.172,126.678 237.505,138.678 238.5,150.5C 241.548,152.119 244.881,153.119 248.5,153.5C 245.257,154.58 241.924,154.747 238.5,154C 237.058,153.623 236.058,152.79 235.5,151.5C 235.5,148.167 235.5,144.833 235.5,141.5C 235.5,135.167 235.5,128.833 235.5,122.5C 235.5,121.5 235.5,120.5 235.5,119.5C 236.167,117.833 236.833,116.167 237.5,114.5 Z"/></g>
<g><path style="opacity:0.51" fill="#c0de23" d="M 86.5,122.5 C 86.5,123.833 87.1667,124.5 88.5,124.5C 89.2389,124.369 89.9056,124.536 90.5,125C 85.6183,127.631 83.6183,126.131 84.5,120.5C 86.5273,120.338 88.5273,120.505 90.5,121C 88.9419,121.21 87.6085,121.71 86.5,122.5 Z"/></g>
<g><path style="opacity:0.629" fill="#cef602" d="M 119.5,120.5 C 119.833,121.167 120.167,121.833 120.5,122.5C 120.179,128.026 120.512,133.36 121.5,138.5C 121.5,139.167 121.833,139.5 122.5,139.5C 122.5,139.833 122.5,140.167 122.5,140.5C 120.901,140.768 119.568,140.434 118.5,139.5C 118.5,133.5 118.5,127.5 118.5,121.5C 118.5,121.167 118.5,120.833 118.5,120.5C 118.833,109.833 119.167,109.833 119.5,120.5 Z"/></g>
<g><path style="opacity:0.442" fill="#bfdc26" d="M 156.5,123.5 C 159.762,127.962 158.429,130.295 152.5,130.5C 152.5,127.833 152.5,125.167 152.5,122.5C 154.099,122.232 155.432,122.566 156.5,123.5 Z"/></g>
<g><path style="opacity:0.704" fill="#784c79" d="M 156.5,123.5 C 158.118,125.656 157.784,127.323 155.5,128.5C 155.672,127.508 155.338,126.842 154.5,126.5C 154.586,125.504 154.252,124.671 153.5,124C 154.448,123.517 155.448,123.351 156.5,123.5 Z"/></g>
<g><path style="opacity:0.706" fill="#c7f010" d="M 194.5,110.5 C 196.711,111.123 198.711,112.123 200.5,113.5C 201.593,115.349 202.926,117.016 204.5,118.5C 205.265,121.096 205.599,123.763 205.5,126.5C 204.833,126.5 204.167,126.5 203.5,126.5C 198.589,126.967 193.922,126.3 189.5,124.5C 188.584,124.543 187.917,124.876 187.5,125.5C 186.285,129.301 186.285,132.967 187.5,136.5C 187.5,138.5 188.5,139.5 190.5,139.5C 191.167,139.5 191.833,139.5 192.5,139.5C 191.22,140.931 189.553,141.598 187.5,141.5C 186.833,141.5 186.5,141.167 186.5,140.5C 185.833,140.5 185.5,140.167 185.5,139.5C 184.833,139.5 184.5,139.167 184.5,138.5C 184.334,134.486 184.501,130.486 185,126.5C 185.92,124.686 187.42,123.686 189.5,123.5C 192.273,124.885 195.273,125.552 198.5,125.5C 200.64,125.444 202.306,124.777 203.5,123.5C 204.833,123.167 204.833,122.833 203.5,122.5C 201.759,117.094 198.093,113.761 192.5,112.5C 193.167,111.833 193.833,111.167 194.5,110.5 Z"/></g>
<g><path style="opacity:0.407" fill="#c0dd28" d="M 250.5,122.5 C 251.873,122.343 253.207,122.51 254.5,123C 252.44,124.493 252.107,126.326 253.5,128.5C 254.971,127.619 255.804,126.286 256,124.5C 256.817,128.711 254.984,130.711 250.5,130.5C 250.5,127.833 250.5,125.167 250.5,122.5 Z"/></g>
<g><path style="opacity:0.642" fill="#764880" d="M 187.5,125.5 C 187.917,124.876 188.584,124.543 189.5,124.5C 193.922,126.3 198.589,126.967 203.5,126.5C 203.5,126.833 203.5,127.167 203.5,127.5C 199.167,127.5 194.833,127.5 190.5,127.5C 190.027,126.094 189.027,125.427 187.5,125.5 Z"/></g>
<g><path style="opacity:0.556" fill="#c8ed19" d="M 190.5,127.5 C 194.833,127.5 199.167,127.5 203.5,127.5C 203.833,128.5 204.5,129.167 205.5,129.5C 205.5,134.833 205.5,140.167 205.5,145.5C 202.953,149.714 199.287,152.381 194.5,153.5C 188.053,154.58 182.387,153.08 177.5,149C 181.122,150.95 185.122,152.116 189.5,152.5C 200.866,151.511 205.866,145.178 204.5,133.5C 203.833,133.5 203.5,133.167 203.5,132.5C 203.5,132.167 203.5,131.833 203.5,131.5C 202.833,131.5 202.5,131.167 202.5,130.5C 198.399,129.209 194.399,129.209 190.5,130.5C 189.833,130.5 189.167,130.5 188.5,130.5C 189.167,129.5 189.833,128.5 190.5,127.5 Z"/></g>
<g><path style="opacity:0.286" fill="#c6ec17" d="M 101.5,122.5 C 102.404,123.209 102.737,124.209 102.5,125.5C 102.5,127.167 102.5,128.833 102.5,130.5C 99.8333,131.5 99.8333,132.5 102.5,133.5C 102.448,135.903 102.781,138.236 103.5,140.5C 103.5,142.5 103.5,144.5 103.5,146.5C 101.786,149.213 99.4532,151.213 96.5,152.5C 88.4271,153.132 80.7605,152.465 73.5,150.5C 81.1179,151.6 88.7845,151.767 96.5,151C 97.4162,150.626 98.2496,150.126 99,149.5C 102.407,143.746 102.24,138.079 98.5,132.5C 100.98,129.639 101.98,126.306 101.5,122.5 Z"/></g>
<g><path style="opacity:0.664" fill="#76467f" d="M 188.5,130.5 C 188.343,131.873 188.51,133.207 189,134.5C 191.172,135.509 192.338,137.176 192.5,139.5C 191.833,139.5 191.167,139.5 190.5,139.5C 190.19,137.856 189.19,136.856 187.5,136.5C 187.205,134.265 187.539,132.265 188.5,130.5 Z"/></g>
<g><path style="opacity:1" fill="#a09c46" d="M 188.5,130.5 C 189.167,130.5 189.833,130.5 190.5,130.5C 190.5,131.833 190.5,133.167 190.5,134.5C 191.5,134.5 192.5,134.5 193.5,134.5C 193.784,136.415 193.451,138.081 192.5,139.5C 192.338,137.176 191.172,135.509 189,134.5C 188.51,133.207 188.343,131.873 188.5,130.5 Z"/></g>
<g><path style="opacity:1" fill="#988659" d="M 89.5,143.5 C 89.1667,142.833 88.8333,142.167 88.5,141.5C 88.5,140.167 87.8333,139.5 86.5,139.5C 85.8333,139.167 85.1667,138.833 84.5,138.5C 86.0654,136.281 88.0654,135.948 90.5,137.5C 91.949,139.912 91.6157,141.912 89.5,143.5 Z"/></g>
<g><path style="opacity:0.122" fill="#7c5279" d="M 229.5,138.5 C 227.283,139.369 224.95,139.702 222.5,139.5C 223.152,138.275 224.319,137.608 226,137.5C 227.385,137.514 228.551,137.848 229.5,138.5 Z"/></g>
<g><path style="opacity:0.38" fill="#cdfa04" d="M 84.5,138.5 C 85.1667,138.833 85.8333,139.167 86.5,139.5C 86.5,140.833 87.1667,141.5 88.5,141.5C 88.8333,142.167 89.1667,142.833 89.5,143.5C 87.8333,143.5 86.1667,143.5 84.5,143.5C 84.5,141.833 84.5,140.167 84.5,138.5 Z"/></g>
<g><path style="opacity:0.585" fill="#cdfb04" d="M 170.5,119.5 C 170.833,119.5 171.167,119.5 171.5,119.5C 171.5,119.833 171.5,120.167 171.5,120.5C 172.167,120.5 172.5,120.833 172.5,121.5C 171.676,124.764 171.342,128.098 171.5,131.5C 169.04,135.45 169.04,139.45 171.5,143.5C 171.5,144.167 171.5,144.833 171.5,145.5C 171.328,146.492 171.662,147.158 172.5,147.5C 172.653,150.535 171.32,152.535 168.5,153.5C 168.5,153.167 168.5,152.833 168.5,152.5C 168.5,152.167 168.5,151.833 168.5,151.5C 169.338,151.158 169.672,150.492 169.5,149.5C 170.833,149.167 170.833,148.833 169.5,148.5C 169.5,147.167 169.5,145.833 169.5,144.5C 168.833,144.5 168.5,144.167 168.5,143.5C 168.5,142.5 168.5,141.5 168.5,140.5C 167.833,140.5 167.5,140.167 167.5,139.5C 168.187,134.452 169.187,129.452 170.5,124.5C 169.833,124.5 169.5,124.167 169.5,123.5C 169.5,122.5 169.5,121.5 169.5,120.5C 170.167,120.5 170.5,120.167 170.5,119.5 Z"/></g>
<g><path style="opacity:0.459" fill="#c7f30e" d="M 261.5,112.5 C 262.167,112.5 262.833,112.5 263.5,112.5C 264.391,113.11 265.391,113.443 266.5,113.5C 271.498,120.698 271.831,128.198 267.5,136C 268.421,140.185 269.421,144.352 270.5,148.5C 270.253,151.077 268.919,152.743 266.5,153.5C 263.023,152.677 259.356,152.177 255.5,152C 252.915,148.163 253.249,147.829 256.5,151C 260.167,151.667 263.833,151.667 267.5,151C 268.252,150.329 268.586,149.496 268.5,148.5C 267.833,148.5 267.5,148.167 267.5,147.5C 266.996,143.815 266.33,140.149 265.5,136.5C 266.802,132.757 267.802,128.924 268.5,125C 268.332,122.335 267.665,119.835 266.5,117.5C 265.833,117.5 265.5,117.167 265.5,116.5C 265.167,115.5 264.5,114.833 263.5,114.5C 262.833,113.833 262.167,113.167 261.5,112.5 Z"/></g>
<g><path style="opacity:0.751" fill="#714775" d="M 103.5,140.5 C 103.833,140.5 104.167,140.5 104.5,140.5C 104.555,143.614 105.888,145.948 108.5,147.5C 112.734,152.933 118.401,154.933 125.5,153.5C 116.502,156.836 109.168,154.502 103.5,146.5C 103.5,144.5 103.5,142.5 103.5,140.5 Z"/></g>
<g><path style="opacity:0.455" fill="#c3e229" d="M 233.5,112.5 C 234.117,112.611 234.617,112.944 235,113.5C 235.495,115.473 235.662,117.473 235.5,119.5C 235.5,120.5 235.5,121.5 235.5,122.5C 231.386,124.117 227.053,124.951 222.5,125C 231.982,124.163 235.149,128.329 232,137.5C 231.329,138.252 230.496,138.586 229.5,138.5C 228.551,137.848 227.385,137.514 226,137.5C 224.319,137.608 223.152,138.275 222.5,139.5C 226.73,140.22 231.063,140.887 235.5,141.5C 235.5,144.833 235.5,148.167 235.5,151.5C 234.5,152.167 233.5,152.833 232.5,153.5C 224.281,153.154 216.281,152.154 208.5,150.5C 216.748,151.469 225.082,151.802 233.5,151.5C 233.5,148.833 233.5,146.167 233.5,143.5C 232.833,143.5 232.5,143.167 232.5,142.5C 228.563,142.793 224.73,142.46 221,141.5C 220.28,139.888 220.446,138.388 221.5,137C 224.482,136.502 227.482,136.335 230.5,136.5C 231.845,128.489 228.512,125.489 220.5,127.5C 220.5,125.833 220.5,124.167 220.5,122.5C 224.833,122.5 229.167,122.5 233.5,122.5C 233.5,121.5 233.5,120.5 233.5,119.5C 234.623,117.312 234.623,114.979 233.5,112.5 Z"/></g>
<g><path style="opacity:0.527" fill="#c6e61e" d="M 137.5,116.5 C 137.5,124.5 137.5,132.5 137.5,140.5C 137.5,141.833 137.5,143.167 137.5,144.5C 134.631,149.039 130.631,152.039 125.5,153.5C 118.401,154.933 112.734,152.933 108.5,147.5C 111.022,149.172 113.688,150.672 116.5,152C 126.553,153.911 133.053,150.078 136,140.5C 136.5,133.842 136.666,127.175 136.5,120.5C 136.768,117.881 136.435,115.381 135.5,113C 135.833,112.833 136.167,112.667 136.5,112.5C 137.429,113.689 137.762,115.022 137.5,116.5 Z"/></g>
<g><path style="opacity:1" fill="#b0bf31" d="M 140.5,113.5 C 140.333,125.838 140.5,138.171 141,150.5C 144.394,151.456 147.894,151.789 151.5,151.5C 151.5,150.5 151.5,149.5 151.5,148.5C 152.404,147.791 152.737,146.791 152.5,145.5C 152.201,143.396 152.534,141.396 153.5,139.5C 154.615,143.608 156.281,147.441 158.5,151C 161.817,151.498 165.15,151.665 168.5,151.5C 168.5,151.833 168.5,152.167 168.5,152.5C 164.818,152.665 161.152,152.499 157.5,152C 155.396,149.958 154.229,147.458 154,144.5C 153.503,146.81 153.337,149.143 153.5,151.5C 152.5,152.167 151.5,152.833 150.5,153.5C 147.359,152.679 144.025,152.179 140.5,152C 139.748,151.329 139.414,150.496 139.5,149.5C 139.5,137.833 139.5,126.167 139.5,114.5C 139.5,113.833 139.833,113.5 140.5,113.5 Z"/></g>
<g><path style="opacity:1" fill="#bad02a" d="M 251.5,151.5 C 250.71,152.401 249.71,153.068 248.5,153.5C 244.881,153.119 241.548,152.119 238.5,150.5C 242.112,151.511 245.779,151.678 249.5,151C 250.136,147.21 250.803,143.377 251.5,139.5C 252.896,140.852 253.563,142.519 253.5,144.5C 253.299,148.424 252.799,148.424 252,144.5C 251.503,146.81 251.337,149.143 251.5,151.5 Z"/></g>
<g><path style="opacity:0.055" fill="#754b7c" d="M 137.5,140.5 C 138.167,143.5 138.833,146.5 139.5,149.5C 139.414,150.496 139.748,151.329 140.5,152C 144.025,152.179 147.359,152.679 150.5,153.5C 141.205,157.047 136.872,154.047 137.5,144.5C 137.5,143.167 137.5,141.833 137.5,140.5 Z"/></g>
<g><path style="opacity:0.055" fill="#7b4e7f" d="M 168.5,152.5 C 168.5,152.833 168.5,153.167 168.5,153.5C 164.587,154.596 160.587,154.762 156.5,154C 155.058,153.623 154.058,152.79 153.5,151.5C 153.337,149.143 153.503,146.81 154,144.5C 154.229,147.458 155.396,149.958 157.5,152C 161.152,152.499 164.818,152.665 168.5,152.5 Z"/></g>
<g><path style="opacity:0.067" fill="#7c5177" d="M 208.5,150.5 C 216.281,152.154 224.281,153.154 232.5,153.5C 224.579,154.633 216.579,154.8 208.5,154C 205.876,151.847 204.876,149.013 205.5,145.5C 205.5,140.167 205.5,134.833 205.5,129.5C 205.5,128.5 205.5,127.5 205.5,126.5C 205.599,123.763 205.265,121.096 204.5,118.5C 204.5,118.167 204.5,117.833 204.5,117.5C 205.315,116.571 206.148,115.571 207,114.5C 207.169,126.674 207.669,138.674 208.5,150.5 Z"/></g>
</svg>
